<?xml version="1.0" encoding="UTF-8"?>
<svg id="Layer_2" xmlns="http://www.w3.org/2000/svg" viewBox="0 0 221.98 452.52">
  <defs>
    <style>
      .cls-1, .cls-2, .cls-3, .cls-4, .cls-5, .cls-6, .cls-7, .cls-8, .cls-9, .cls-10, .cls-11, .cls-12, .cls-13, .cls-14, .cls-15 {
        stroke: #030303;
        stroke-width: .05px;
      }

      .cls-1, .cls-16, .cls-13 {
        fill: #fff;
      }

      .cls-2 {
        isolation: isolate;
        opacity: .98;
      }

      .cls-2, .cls-4, .cls-5, .cls-6, .cls-13 {
        stroke-linecap: round;
      }

      .cls-2, .cls-6, .cls-11 {
        fill: none;
      }

      .cls-3 {
        stroke-miterlimit: 16.18;
      }

      .cls-3, .cls-17, .cls-14 {
        fill: #f0b51d;
      }

      .cls-4, .cls-10, .cls-18 {
        fill: #d22629;
      }

      .cls-5 {
        fill: #f4d01c;
      }

      .cls-19 {
        fill: #204486;
      }

      .cls-20, .cls-7 {
        fill: #030303;
      }

      .cls-8 {
        fill: #136c38;
      }

      .cls-9, .cls-21 {
        fill: #224086;
      }

      .cls-12 {
        fill: #158342;
      }

      .cls-22 {
        fill: #0e1635;
      }

      .cls-15 {
        fill: #eeb61d;
      }

      .cls-23 {
        fill: #db2429;
      }
    </style>
  </defs>
  <rect class="cls-16" width="219" height="450.07"/>
  <rect class="cls-19" x="1.7" y="15" width="22.44" height="161.12"/>
  <rect class="cls-23" x="1.7" y="176.12" width="22.44" height="149.86"/>
  <g id="g27">
    <g id="g3">
      <path id="path2" class="cls-1" d="M104.12,127.32c-.33-.81-2.93-.74-4.97-.13s-3.19.44-7.58.5c-4.39.07-6.88,1.04-7.25,1.17s-6.99,3.28-9.56,4.08c-2.56.81-4.97,0-4.97,0,0,0,2.93,2.78,7.06.56,0,0-3.43,1.87-5.67,2.11,0,0,3.32.67,6.13-.5.26-.11.5-.22.74-.37,1.76-.85,3.32-1.52,4.73-2.02,8.06-2.91,11.19-1.07,16.7-2.43"/>
      <path id="path3" class="cls-1" d="M104.11,127.19c-.37.72-2.54.3-3.93.76.33.28,1.28.78,3.98,1.28.45-1.63-.04-2.04-.04-2.04h0Z"/>
    </g>
    <g id="g6">
      <path id="path4" class="cls-11" d="M82.52,132.57c-2.58.85-3.84,1.63-5.25,2.15M82.19,132.09c-2.24.78-3.54,1.52-4.91,2.04M81.87,131.61c-1.91.7-3.24,1.41-4.56,1.93M81.56,131.16c-1.56.63-2.93,1.3-4.24,1.82M81.23,130.7l-3.89,1.72"/>
      <path id="path5" class="cls-11" d="M85.56,131.33s3.62-1.07,6.43-.74M85.97,130.66s3.41-.93,6.39-.67M86.39,129.99s3.17-.81,6.36-.63M86.8,129.32s2.95-.67,6.32-.59M87.21,128.64s2.74-.54,6.3-.54"/>
      <path id="path6" class="cls-11" d="M96.83,128.06l3.28-.63c1.39-.19,2.8-.28,3.21.09M96.52,128.62s1.91-.22,3.45-.59M96.22,129.18s2.19-.02,3.62-.54M95.91,129.75s2.45.15,3.8-.5M95.61,130.27s2.74.3,3.98-.41"/>
    </g>
    <g id="g26">
      <g id="use6">
        <path id="B" class="cls-14" d="M109.88,80.69l3.95,8.14.91-.44,7.06,12.99.07-2.19-6.71-11.49.3-.24-.45-.5-.22.13h0s-.45-.07-.5.11l-4.41-6.49v-.02h0Z"/>
      </g>
      <g id="use7">
        <path id="C" class="cls-1" d="M109.88,80.69l3.95,8.14.91-.44-.48-1.24-4.39-6.45v-.02ZM117.89,92.38c-.24.09-.56.22-.81.35l.98,1.8c.15-.11.48-.33.78-.35.02,0,.04,0,.07-.02l-1.02-1.76v-.02h0Z"/>
      </g>
      <g id="g9">
        <g id="use8">
          <path id="D" class="cls-11" d="M115.03,86.97l-.19.11.35.61.3-.24-.45-.5v.02h0Z"/>
        </g>
        <g id="use9">
          <path id="B-2" class="cls-11" d="M109.88,80.69l3.95,8.14.91-.44,7.06,12.99.07-2.19-6.71-11.49.3-.24-.45-.5-.22.13h0s-.45-.07-.5.11l-4.41-6.49v-.02h0Z"/>
        </g>
      </g>
      <g id="g14">
        <g id="use10">
          <path id="B-3" class="cls-14" d="M112.47,77.61l3.1,8.49.96-.35,5.69,13.62.28-2.19-5.5-12.07.35-.19-.39-.54-.24.11h0s-.44-.11-.52.04l-3.71-6.88-.02-.02h0Z"/>
        </g>
        <g id="use11">
          <path id="E" class="cls-1" d="M112.47,77.61l3.1,8.49.96-.35-.35-1.28-3.69-6.84-.02-.02h0Z"/>
        </g>
        <g id="g13">
          <g id="use12">
            <path id="D-2" class="cls-11" d="M116.94,84.36l-.22.09.28.65.33-.19s-.39-.54-.39-.54Z"/>
          </g>
          <g id="use13">
            <path id="B-4" class="cls-11" d="M112.47,77.61l3.1,8.49.96-.35,5.69,13.62.28-2.19-5.5-12.07.35-.19-.39-.54-.24.11h0s-.44-.11-.52.04l-3.71-6.88-.02-.02h0Z"/>
          </g>
        </g>
      </g>
      <g id="use14">
        <path id="F" class="cls-1" d="M112.47,77.61l3.1,8.49.96-.35-.35-1.28-3.69-6.84-.02-.02h0Z"/>
      </g>
      <g id="use15">
        <path id="G" class="cls-11" d="M116.94,84.36l-.22.09.28.65.33-.19s-.39-.54-.39-.54Z"/>
      </g>
      <g id="use16">
        <path id="H" class="cls-1" d="M118.39,88.12c-.28.07-.52.24-.7.39l.76,1.8c.22-.13.52-.26.78-.35l-.82-1.85h-.02,0Z"/>
      </g>
      <g id="use17">
        <path id="I" class="cls-11" d="M112.47,77.61l3.1,8.49.96-.35,5.69,13.62.28-2.19-5.5-12.07.35-.19-.39-.54-.24.11h0s-.44-.11-.52.04l-3.71-6.88-.02-.02h0Z"/>
      </g>
      <g id="g25">
        <g id="g22">
          <g id="use18">
            <path id="B-5" class="cls-14" d="M115.86,76.57l2.45,8.68.98-.28,4.67,13.96.44-2.15-4.58-12.42.35-.18-.35-.56-.24.09h0s-.44-.15-.52,0l-3.19-7.14h0Z"/>
          </g>
          <g id="use19">
            <path id="E-2" class="cls-1" d="M115.86,76.57l2.45,8.68.98-.28-.26-1.3-3.19-7.1h.02Z"/>
          </g>
          <g id="g21">
            <g id="use20">
              <path id="D-3" class="cls-11" d="M119.81,83.62l-.22.09.24.67.35-.18-.35-.56-.02-.02h0Z"/>
            </g>
            <g id="use21">
              <path id="B-6" class="cls-11" d="M115.86,76.57l2.45,8.68.98-.28,4.67,13.96.44-2.15-4.58-12.42.35-.18-.35-.56-.24.09h0s-.44-.15-.52,0l-3.19-7.14h0Z"/>
            </g>
          </g>
        </g>
        <g id="use22">
          <path id="F-2" class="cls-1" d="M115.86,76.57l2.45,8.68.98-.28-.26-1.3-3.19-7.1h.02Z"/>
        </g>
        <g id="use23">
          <path id="G-2" class="cls-11" d="M119.81,83.62l-.22.09.24.67.35-.18-.37-.56v-.02h0Z"/>
        </g>
        <g id="use24">
          <path id="H-2" class="cls-1" d="M120.96,87.47c-.28.04-.54.19-.74.35l.61,1.85c.24-.11.54-.22.81-.3l-.7-1.89s.02,0,.02,0Z"/>
        </g>
        <g id="use25">
          <path id="I-2" class="cls-11" d="M115.86,76.57l2.45,8.68.98-.28,4.67,13.96.44-2.15-4.58-12.42.35-.18-.35-.56-.24.09h0s-.44-.15-.52,0l-3.19-7.12v-.02h0Z"/>
        </g>
      </g>
    </g>
  </g>
  <g id="g115">
    <path id="path27" class="cls-18" d="M107.97,105.58l.82,8.04,10.51-.67-11.34-7.36h0Z"/>
    <g id="g28">
      <path id="path28" class="cls-21" d="M87.82,96.7s.76,12.83,4.78,19.26l16.35-2.35-.45-7.8-20.68-13.7v4.58h0Z"/>
      <g id="use28">
        <path id="J" class="cls-9" d="M103.13,77c.98.41,1.87.09,1.87.09,0,0,.44.54-.74.61,0,0-.45.04-.15.54"/>
      </g>
    </g>
    <g id="use29">
      <path id="K" class="cls-10" d="M101.74,76.03s1.76-1.39,2.87-1.3,1.15.07,1.26.26.28,1.07-.19,1.7c-.5.63-.7.48-.78.35s-.78-.54-2.11-.24"/>
    </g>
    <g id="use30">
      <path id="L" class="cls-9" d="M104.49,74.72h.11c1.11.09,1.15.07,1.26.26.07.13.18.59.09,1.07-.18-.15-.5-.3-1.22-.26-1.39.07-2.22.63-2.22.63l-.13.09-.63-.45s1.65-1.3,2.76-1.3h0l-.02-.02h0Z"/>
    </g>
    <path id="path30" class="cls-18" d="M122.15,107.95l-12.51-11.1c-2.8,1.19-2.58,3.36-.65,6.1l-.07,2.74,10.23,6.95,2.8-.67.11-2.5.07-1.48.02-.04h0ZM121.76,100.8l-7.67-9.62-1.93,4.19.61,3.95,9.16,8.38-.15-6.91h-.02,0Z"/>
    <g id="g32">
      <g id="use31">
        <path id="M" class="cls-21" d="M114.07,91.36s-1.54,3.45-1.3,7.9l-9.34-8.47-4.45-3.93.09.07.59-2.71.28-1.54.74.18v-.89l.13-.76.63-1.22.52-1.3.13-1.08-.24-1.3.33.15,11.94,14.9-.04.02h0Z"/>
      </g>
      <g id="use32">
        <path id="N" class="cls-9" d="M86.43,92.01s-.91.89-1.02,2.89l-.09,3.39s1.48.85,2.89.5c0,0-.24-.59-.28-1.41-.02-.82.02-5.1.02-5.1l-1.52-.26h0Z"/>
      </g>
    </g>
    <g id="use33">
      <path id="O" class="cls-10" d="M87.28,92.27l.67.04v5.06c0,.82.24,1.41.24,1.41-.5.13-1.04.09-1.5,0l-.15-3.91c.02-1.33.74-2.63.74-2.63h0s0,.02,0,.02Z"/>
    </g>
    <g id="use34">
      <path id="P" class="cls-17" d="M75.48,128.53c-.28-.72-1.04-.87-1.04-.87,0,0-.07-.04.18-.56s.11-.89.11-.89c-.09-2.74.19-3.47.19-3.47-.19,0-1.08,1.04-1.08,1.04.02-2.61,3.99-3.82,3.99-3.82-1.45,3.58-.89,3.99-.89,3.99-.91-.39-1.04-.98-1.04-.98-.18.98-.02,2.89-.02,2.89,0,0-.07.89.81.45s4.34-2.06,4.34-2.06l.37.72-4.8,2.17s-.7.3-.5.82.3.61.3.61h-.91s0-.04,0-.04Z"/>
    </g>
    <g id="g40">
      <g id="g36">
        <g id="use35">
          <path id="Q" class="cls-11" d="M75.87,125.82s-.13-1.91.02-2.89c0,0,.11.61,1.04.98,0,0-.56-.41.89-3.99,0,0-3.98,1.22-3.99,3.82,0,0,.89-1.04,1.08-1.04,0,0-.28.74-.19,3.47"/>
        </g>
        <g id="use36">
          <path id="R" class="cls-11" d="M75.48,128.53c-.28-.72-1.04-.87-1.04-.87,0,0-.07-.04.18-.56s.11-.89.11-.89c-.09-2.74.19-3.47.19-3.47-.19,0-1.08,1.04-1.08,1.04.02-2.61,3.99-3.82,3.99-3.82-1.45,3.58-.89,3.99-.89,3.99-.91-.39-1.04-.98-1.04-.98-.18.98-.02,2.89-.02,2.89,0,0-.07.89.81.45s4.34-2.06,4.34-2.06l.37.72-4.8,2.17s-.7.3-.5.82.3.61.3.61"/>
        </g>
      </g>
      <g id="g39">
        <g id="use37">
          <path id="S" class="cls-14" d="M82.78,123.26c.18,0,.37.07.52.18.09.07.18.18.19.3s0,.3-.09.48c-.19.39-.56.52-.87.56s-.56,0-.56,0l.04-.22s.22.04.5,0,.54-.13.7-.44c.09-.15.09-.26.09-.35s-.04-.13-.11-.18c-.11-.09-.3-.11-.37-.11-.09,0-.18,0-.35.07s-.39.26-.67.65l-.19-.13c.3-.41.56-.63.76-.72s.37-.09.44-.09h0l-.02-.02h0Z"/>
        </g>
        <g id="use38">
          <path id="T" class="cls-14" d="M82.43,125.71s-.11-1.8-1.28-2.41c0,0-.28.02-.3.24-.02.22,1.08,2.13,1.08,2.13l.5.04h0Z"/>
        </g>
        <g id="use39">
          <path id="U" class="cls-14" d="M82.3,125.52s-.09-1.5-1.07-2.02c0,0-.24.02-.26.19s.91,1.76.91,1.76l.41.04v.02h0Z"/>
        </g>
        <ellipse id="circle39" class="cls-14" cx="93.03" cy="121.13" rx="1.26" ry="1.22"/>
      </g>
    </g>
    <g id="use40">
      <path id="V" class="cls-18" d="M76.91,108.42s-2.11.11-2.08,1.13c.02,1.02.35,2.02-.37,2.19-.72.18-2.17.19-2.52.56s-.37.81-.37.81c0,0,1.82-.63,2.63-.19s1.65-.26,1.78-.5c.28-.52.13-1.54.67-1.72.56-.19,2.32-.22,2.32-.22l-2.06-2.08v.02h0Z"/>
    </g>
    <path id="path40" class="cls-21" d="M92.25,94.44c-.33-5.54.65-12.05.65-12.05l.09-.96,17.09,15.92s-1.15,1.7-.98,8.45l-1.33-.89-15.53-10.45v-.02h0Z"/>
    <g id="g59">
      <path id="path41" class="cls-11" d="M92.25,94.44c-.33-5.54.65-12.05.65-12.05l.09-.96"/>
      <g id="g51">
        <g id="use41">
          <path id="W" class="cls-14" d="M96.83,69.31l2.28,5.19s.67-.65,1.19.02l.54.67M96.83,69.29l4.41,3.67s-.85.41-.33,1.13l.5.7-.56.41"/>
        </g>
        <g id="g43">
          <g id="use42">
            <path id="X" class="cls-14" d="M102.61,73.66l-3.15,2.24.82,1.11,3.15-2.24-.82-1.11Z"/>
          </g>
          <g id="use43">
            <path id="Y" class="cls-14" d="M102.54,74l-2.71,1.93.54.72,2.71-1.93-.54-.72Z"/>
          </g>
        </g>
        <g id="g47">
          <g id="use44">
            <path id="W-2" class="cls-14" d="M86.67,75.76l3.1,4.78s.54-.76,1.19-.15l.65.59M86.69,75.76l4.95,2.93s-.76.54-.15,1.17l.61.61-.5.5"/>
          </g>
          <g id="g46">
            <g id="use45">
              <path id="X-2" class="cls-3" d="M93.07,79.15l-2.74,2.69,1,.96,2.74-2.69-1-.96Z"/>
            </g>
            <g id="use46">
              <path id="Y-2" class="cls-3" d="M93.07,79.5l-2.37,2.32.65.63,2.37-2.32-.65-.63Z"/>
            </g>
          </g>
        </g>
        <g id="g50">
          <g id="use47">
            <path id="W-3" class="cls-14" d="M80.07,86.62l3.91,4.19s.41-.82,1.15-.35l.74.48M80.09,86.63l5.41,2.06s-.65.67.07,1.17l.72.5-.41.56"/>
          </g>
          <g id="g49">
            <g id="use48">
              <path id="X-3" class="cls-14" d="M86.97,88.9l-2.22,3.1,1.15.78,2.22-3.1-1.15-.78Z"/>
            </g>
            <g id="use49">
              <path id="Y-3" class="cls-14" d="M87.02,89.23l-1.93,2.69.76.52,1.93-2.69-.76-.52Z"/>
            </g>
          </g>
        </g>
        <path id="path50" class="cls-14" d="M102,75.78l19.85,24.56-.13.39-20.05-24.69.3-.24.02-.02h0ZM93.42,81.78l28.71,25.93-.26.28-28.71-25.93s.26-.28.26-.28ZM88.79,92.16l30.58,20.37-.22.33-30.58-20.37.22-.33Z"/>
      </g>
      <g id="use51">
        <path id="Z" class="cls-9" d="M92.08,82.13s2.89-.54,3.58-.13c.7.41-1.24.44-1.61.33l.72.72s1.65-.39,1.93-1.91-.82-1.52-1.08-1.5-1.7.24-3.56,2.5c0,0,.02,0,.02,0Z"/>
      </g>
      <g id="g52">
        <g id="use52">
          <path id="a" class="cls-10" d="M96.2,80.54c.33.09.56.3.48.72,0,0-.13.45-.26.72l-.04-.04c-.09.15-.19.28-.33.39l-.28-.09s0-.13-.13-.19c-.09-.04-.18-.09-.3-.11-.52-.19-1.3,0-1.48,0l-.87.04s2.61-1.56,3.21-1.39h0v-.04h0Z"/>
        </g>
        <path id="path52" class="cls-11" d="M93.23,81.84s3.21-.93,3.21-.02"/>
      </g>
      <g id="use53">
        <path id="Z-2" class="cls-11" d="M92.08,82.13s2.89-.54,3.58-.13c.7.41-1.24.44-1.61.33l.72.72s1.65-.39,1.93-1.91-.82-1.52-1.08-1.5-1.7.24-3.56,2.5c0,0,.02,0,.02,0Z"/>
      </g>
      <g id="use54">
        <path id="b" class="cls-9" d="M92.44,82.1c.07.35.15.82.11,1.02-.93,2.32-2.22,2.39-1.72,5.21h-1c-.11-1.35.11-2.58.35-3.15.13-.28.39-.61.7-.93s.63-.63.87-.87c.45-.48.15-1.11.15-1.11l.52-.19s.02.02.02.02Z"/>
      </g>
      <g id="use55">
        <path id="c" class="cls-10" d="M93.05,81.89s.18.45.18,1.07c0,.3-.04.67-.18,1.04-.13.37-.24.74-.33,1.13-.18.81-.28,1.78-.3,3.26l-1.56-.04c-.5-2.84.78-2.89,1.72-5.21.04-.22-.04-.67-.11-1.02l.61-.22h-.02,0Z"/>
      </g>
      <g id="g56">
        <g id="use56">
          <path id="d" class="cls-11" d="M91.92,82.3s.33.63-.15,1.11l-.87.87c-.3.33-.59.65-.7.93-.24.56-.45,1.8-.35,3.1M89.86,88.31l2.56.07c.02-1.48.13-2.45.3-3.26.09-.39.19-.76.33-1.13.11-.33.18-.7.18-1.04,0-.63-.18-1.07-.18-1.07l-1.13.41"/>
        </g>
        <path id="path56" class="cls-11" d="M91.6,88.36s-.35-1.56.45-2.95c.82-1.41,1.07-3.56.63-3.43"/>
      </g>
      <g id="use57">
        <path id="e" class="cls-14" d="M94.46,110.97l2.22,3.76,8.73.63.82.11s1.28,2.93,2.69,3.32,10.9,3.26,10.9,3.26l.28-2.11-6.15-1.93s-1.8-.65-2.35-1.33-4.99-4.84-4.99-4.84l-12.18-.87h.02,0Z"/>
      </g>
      <g id="g58">
        <path id="path57" class="cls-14" d="M98.37,101.37l12.7,20.61-.26.15-12.7-20.61.26-.15Z"/>
        <g id="use58">
          <path id="f" class="cls-1" d="M98.63,102.19s-.37.33-.81-.19-1.74-2.71-2-3.1c-.24-.39-.56-.72-.15-1,.41-.26,1.02.07,1.5,1.07s2.08,2.71,1.45,3.24h0Z"/>
        </g>
      </g>
    </g>
    <g id="g65">
      <g id="g64">
        <g id="use59">
          <path id="g" class="cls-14" d="M87.39,105.04c-.48-.07-1.28.85-1.5,2.41s0,2.89.45,2.95c.18,0,.37-.13.56-.44l25.37,3.32.54-4.67-25.15-2.91c-.09-.61,0-.65-.26-.67h-.02,0Z"/>
        </g>
        <g id="use60">
          <path id="h" class="cls-5" d="M111.79,108.53s-.15.24-.22.39M111.23,108.49s-.15.24-.22.39M110.66,108.45s-.15.24-.22.39M110.1,108.4s-.15.24-.22.39M109.53,108.36s-.15.24-.22.39M108.97,108.32s-.15.24-.22.39M108.41,108.28s-.15.24-.22.39M107.84,108.23s-.15.24-.22.39M107.28,108.19s-.15.24-.22.39M106.72,108.15s-.15.24-.22.39M106.15,108.11s-.15.24-.22.39M105.59,108.06s-.15.24-.22.39M105.02,108.02s-.15.24-.22.39M104.46,107.98s-.15.24-.22.39M103.9,107.93s-.15.24-.22.39M103.33,107.89s-.15.24-.22.39M102.77,107.85s-.15.24-.22.39M102.21,107.81s-.15.24-.22.39M101.64,107.76s-.15.24-.22.39M101.08,107.72s-.15.24-.22.39M100.51,107.68s-.15.24-.22.39M99.95,107.64s-.15.24-.22.39M99.39,107.59s-.15.24-.22.39M98.82,107.55s-.15.24-.22.39M98.26,107.51s-.15.24-.22.39M97.7,107.47s-.15.24-.22.39M97.13,107.42s-.15.24-.22.39M96.57,107.38s-.15.24-.22.39M96,107.34s-.15.24-.22.39M95.44,107.3s-.15.24-.22.39M94.88,107.25s-.15.24-.22.39M94.31,107.21s-.15.24-.22.39M93.75,107.17s-.15.24-.22.39M93.18,107.12s-.15.24-.22.39M92.62,107.08s-.15.24-.22.39M92.06,107.04s-.15.24-.22.39M91.49,107s-.15.24-.22.39M90.93,106.95s-.15.24-.22.39M90.37,106.91s-.15.24-.22.39M89.8,106.87s-.15.24-.22.39M89.24,106.83s-.15.24-.22.39M88.67,106.78s-.15.24-.22.39M88.11,106.74s-.15.24-.22.39M87.55,106.7s-.15.24-.22.39M86.98,106.66s-.15.24-.22.39"/>
        </g>
        <path id="path60" class="cls-11" d="M86.77,107.25l25.69,3.36M86.71,107.82l25.69,3.36M86.64,108.38l25.69,3.36M86.62,108.66l25.69,3.36M86.59,108.94l25.69,3.36M86.57,109.22l25.69,3.36M86.55,109.5l25.69,3.36M86.52,109.78l25.69,3.36"/>
        <g id="g63">
          <g id="use61">
            <path id="i" class="cls-14" d="M91.2,105.73c-.45-.02-.89,1.11-1,2.54h0c-.11,1.44.18,2.61.63,2.65h0c.09,0,.18-.04.26-.11-.28-.39-.44-1.37-.35-2.45.09-1.13.37-2.11.74-2.43-.09-.11-.18-.18-.26-.18h0l-.02-.02h0Z"/>
          </g>
          <g id="use62">
            <path id="i-2" class="cls-14" d="M109.17,108.08c-.45-.02-.89,1.11-1,2.54h0c-.11,1.44.18,2.61.63,2.65h0c.09,0,.18-.04.26-.11-.28-.39-.44-1.37-.35-2.45.09-1.13.37-2.11.74-2.43-.09-.11-.18-.18-.26-.18h0l-.02-.02h0Z"/>
          </g>
          <g id="use63">
            <path id="j" class="cls-14" d="M112.92,110.16l1.44-.09s.87.3.93.65.09.91,0,1.04c-.07.15-1.74.44-2.32-.07l-.04-1.54h0Z"/>
          </g>
        </g>
      </g>
      <g id="use64">
        <path id="k" class="cls-20" d="M115.29,110.73c-.56.13-1.59.09-2.35,0v.96c.61.52,2.28.22,2.37.07.07-.15.04-.7,0-1.04h0l-.02.02h0Z"/>
      </g>
      <g id="use65">
        <path id="l" class="cls-14" d="M112.66,108.49s-.11.02-.18.11c.13.5.15,1.35.09,2.24-.07,1.02-.26,1.96-.5,2.37.07.19.15.28.24.3.15,0,.3-.24.45-.7.13-.45.24-1.08.28-1.76.04-.67.02-1.3-.04-1.78s-.19-.76-.35-.76h0v-.02h0Z"/>
      </g>
    </g>
    <g id="g83">
      <g id="g67">
        <g id="use66">
          <path id="m" class="cls-14" d="M98.22,108.53h0c.28.09.5.33.5.63v4.21l-3.06-2.98c-.22-.22-.24-.54-.09-.78h0l-1.33,1.28h0c.26-.19.63-.18.87.04l3.13,3.04h-4.43c-.3,0-.56-.22-.63-.5h0v1.82h0c.04-.33.3-.56.65-.56h4.41l-3.15,3.06c-.22.22-.54.24-.81.09h0l1.33,1.3h0c-.19-.26-.19-.61.04-.85l3.13-3.04v4.32c0,.3-.22.54-.5.61h1.89c-.33-.04-.59-.3-.59-.63v-4.39l3.19,3.1c.24.24.26.59.04.85h0l1.33-1.28h0c-.26.15-.59.11-.81-.11l-3.15-3.06h4.41c.33,0,.61.24.65.56h0v-1.82h0c-.07.28-.33.5-.63.5h-4.43l3.13-3.04c.24-.24.61-.24.87-.04h0l-1.33-1.3h0c.15.26.13.59-.09.81l-3.15,3.06v-4.3c0-.33.26-.59.59-.63h-1.89l-.11.02h0Z"/>
        </g>
        <ellipse id="circle66" class="cls-14" cx="99.13" cy="114.46" rx="1.19" ry="1.17"/>
        <g id="use67">
          <path id="n" class="cls-14" d="M99.13,106.69c-4.36,0-7.9,3.45-7.9,7.71h0c0,4.25,3.54,7.71,7.9,7.71s7.9-3.45,7.9-7.71-3.54-7.71-7.9-7.71h0ZM99.13,108.65c3.26,0,5.91,2.56,5.91,5.73s-2.65,5.73-5.91,5.73-5.91-2.56-5.91-5.73,2.65-5.73,5.91-5.73Z"/>
        </g>
      </g>
      <circle id="circle67" class="cls-20" cx="99.13" cy="107.64" r=".26"/>
      <circle id="circle68" class="cls-20" cx="99.13" cy="121.09" r=".26"/>
      <g id="g70">
        <circle id="circle69" class="cls-20" cx="104" cy="109.62" r=".26"/>
        <circle id="circle70" class="cls-20" cx="94.25" cy="119.11" r=".26"/>
      </g>
      <g id="g72">
        <circle id="circle71" class="cls-20" cx="94.25" cy="109.62" r=".26"/>
        <circle id="circle72" class="cls-20" cx="104" cy="119.11" r=".26"/>
      </g>
      <g id="g74">
        <circle id="circle73" class="cls-20" cx="92.23" cy="114.37" r=".26"/>
        <circle id="circle74" class="cls-20" cx="106.01" cy="114.37" r=".26"/>
      </g>
      <g id="g76">
        <circle id="circle75" class="cls-20" cx="92.73" cy="116.89" r=".26"/>
        <circle id="circle76" class="cls-20" cx="105.52" cy="111.83" r=".26"/>
      </g>
      <g id="g78">
        <circle id="circle77" class="cls-20" cx="105.45" cy="117.03" r=".26"/>
        <circle id="circle78" class="cls-20" cx="92.79" cy="111.71" r=".26"/>
      </g>
      <g id="g80">
        <circle id="circle79" class="cls-20" cx="101.83" cy="108.19" r=".26"/>
        <circle id="circle80" class="cls-20" cx="96.42" cy="120.54" r=".26"/>
      </g>
      <g id="g82">
        <circle id="circle81" class="cls-20" cx="96.42" cy="108.19" r=".26"/>
        <circle id="circle82" class="cls-20" cx="101.83" cy="120.54" r=".26"/>
      </g>
    </g>
    <ellipse id="circle83" class="cls-14" cx="89.99" cy="121.13" rx="1.26" ry="1.22"/>
    <g id="g86">
      <g id="use83">
        <path id="o" class="cls-1" d="M120.78,104.95s-3.08,1.3-3.34-.93c0,0-1.87,2.28.7,3.73,0,0-1.17-1.8,2.65-2.02,0,0,.52.04.48-.37s-.48-.41-.48-.41h0Z"/>
      </g>
      <g id="use84">
        <path id="p" class="cls-20" d="M121.26,105.45c-.44.04-1.44.15-2.98.45-.7.13-1.17.04-1.5-.13,0,.65.3,1.39,1.35,1.98,0,0-1.17-1.8,2.65-2.02,0,0,.48.04.48-.28h0Z"/>
      </g>
      <g id="g85">
        <path id="path84" class="cls-1" d="M119.44,104.93l-.26.04,1.07,6.93.26-.04-1.07-6.93Z"/>
        <path id="path85" class="cls-1" d="M119.52,104.93l-.48.07.22,1.39.48-.07-.22-1.39Z"/>
      </g>
    </g>
    <g id="g92">
      <g id="g88">
        <ellipse id="ellipse86" class="cls-1" cx="113.51" cy="123.41" rx="1.87" ry=".87"/>
        <g id="g87">
          <g id="use86">
            <path id="q" class="cls-14" d="M113.68,113.22c-.18,0-.35,0-.39.13-.09.19.18.24.18.24v1.15c0,.37-.3,5.76-.44,6.82-.04.39-.15.7-.24.96,0,0-1.33.15-1.26.74s.78.98,1.98.93c1.48-.04,1.89-.33,1.96-.7s-.35-.7-.98-.81l-.33-1.8s.07.26.91.09c.85-.18.82-1.44.82-1.44v-4.45c-.07-.7-.45-1.02-1.02-1.24-.44-.07-.74.02-.78.26s-.15.3-.24.22c-.07-.09,0-.76,0-.76,0,0,.33-.15.18-.24-.07-.04-.24-.09-.41-.11h.07,0ZM114.79,114.5l.3.15.09.81v4.08l-.04.26-.39.3-.44-.09-.24-.26-.15-3.65-.04-1.17.54-.37.37-.09v.02h0Z"/>
          </g>
          <g id="use87">
            <path id="r" class="cls-11" d="M114.61,123.11s-.5-1.26-.63-4.56v-3.71c.15-.15.63-.44.89-.26s.22.19.26.76.04,4.19.04,4.19c0,0-.13.61-.48.59s-.61-.15-.65-.41"/>
          </g>
        </g>
        <path id="path87" class="cls-11" d="M112.42,123.17s.48-.56.63-1.61.44-6.45.44-6.82v-1.15"/>
      </g>
      <g id="g91">
        <g id="use88">
          <path id="s" class="cls-1" d="M106.84,119.26s1.7.04,2.24,1.07.24,1.98-.39,2.37-2.04.67-2.69.28-1.08-1.65-.35-1.78c.74-.13,2-.39,1.85-.87s-.81-.48-.81-.48l.15-.59h0Z"/>
        </g>
        <path id="path88" class="cls-1" d="M107.08,119.04l-.3-.04-.24,1.07.3.04.24-1.07Z"/>
        <g id="g90">
          <path id="path89" class="cls-1" d="M83.08,113.96l7.14,3.62-.04.07-.5.09-6.78-3.43.18-.35h0Z"/>
          <path id="path90" class="cls-1" d="M82.87,114.14l4.02,6.93-.65-.35-3.71-6.41.35-.19v.02h0Z"/>
        </g>
      </g>
    </g>
    <g id="use92">
      <path id="t" class="cls-20" d="M76.01,107.38s.11.02.13.07l6.78,6.56s.09.19,0,.26-.19.07-.28,0l-6.67-6.43v-.44h.02l.02-.02h0Z"/>
    </g>
    <g id="g107">
      <g id="use93">
        <path id="u" class="cls-1" d="M81.8,113.01s.11.02.13.07l6.73,6.49h-.59l-6.41-6.23c-.09-.07-.09-.19,0-.26.04-.04.09-.07.15-.07,0,0-.02,0-.02,0Z"/>
      </g>
      <g id="g102">
        <ellipse id="circle93" class="cls-14" cx="107.3" cy="126.04" rx="1.26" ry="1.22"/>
        <ellipse id="circle94" class="cls-14" cx="104.3" cy="123.58" rx="1.26" ry="1.22"/>
        <ellipse id="circle95" class="cls-14" cx="99.69" cy="123.86" rx="1.26" ry="1.22"/>
        <ellipse id="circle96" class="cls-14" cx="96.2" cy="125.73" rx="1.26" ry="1.22"/>
        <ellipse id="circle97" class="cls-14" cx="93.16" cy="125.73" rx="1.26" ry="1.22"/>
        <ellipse id="circle98" class="cls-14" cx="90.1" cy="125.73" rx="1.26" ry="1.22"/>
        <ellipse id="circle99" class="cls-14" cx="87.06" cy="125.73" rx="1.26" ry="1.22"/>
        <ellipse id="circle100" class="cls-14" cx="94.66" cy="123.47" rx="1.26" ry="1.22"/>
        <ellipse id="circle101" class="cls-14" cx="91.6" cy="123.47" rx="1.26" ry="1.22"/>
        <ellipse id="circle102" class="cls-14" cx="88.56" cy="123.47" rx="1.26" ry="1.22"/>
      </g>
      <g id="use102">
        <path id="v" class="cls-10" d="M101.11,76.61s.11.96-.74,1.54-1.82,1.19-2.22,2.82-.11,1.44-.11,1.44l2.61.44s-.3-1.15.35-2.06,1.56-3.54.7-4.61l-.59.44h0Z"/>
      </g>
      <g id="g106">
        <g id="use103">
          <path id="w" class="cls-9" d="M101.2,76.57c.15.37.44,1.26-.18,1.89-.78.81-1.52,1.19-1.82,2.3-.15.59-.28,1.19-.37,1.8l-.76-.13s-.3.19.11-1.44c.39-1.63,1.37-2.26,2.22-2.82s.74-1.54.74-1.54l.09-.07h-.02Z"/>
        </g>
        <path id="path103" class="cls-11" d="M101.5,76.13s.5,1.11-.04,2.19c-.54,1.11-1.08,1.63-1.37,2.35s0,1.39-.35,1.91"/>
        <g id="g105">
          <g id="use104">
            <path id="x" class="cls-1" d="M81.11,124.54s.09.07.09.11c0,.07-.07.09-.11.09h0s-1.78-.28-3.1,1.04c-.04.04-.11.04-.15,0s-.04-.11,0-.15h0c1.39-1.39,3.28-1.11,3.28-1.11h0v.02h0Z"/>
          </g>
          <g id="use105">
            <path id="y" class="cls-1" d="M78,126.49s0,.28-.22.54-.67.52-1.56.54v-.19c.82-.02,1.22-.26,1.39-.48s.18-.39.18-.39h.22v-.02h0Z"/>
          </g>
        </g>
      </g>
    </g>
    <g id="use107">
      <path id="z" class="cls-17" d="M75.48,128.53c-.28-.72-1.04-.87-1.04-.87,0,0-.07-.04.18-.56s.11-.89.11-.89c-.09-2.74.19-3.47.19-3.47-.19,0-1.08,1.04-1.08,1.04.02-2.61,3.99-3.82,3.99-3.82-1.45,3.58-.89,3.99-.89,3.99-.91-.39-1.04-.98-1.04-.98-.18.98-.02,2.89-.02,2.89,0,0-.07.89.81.45.45-.24,2.71-1.28,2.71-1.28l.22.74-3,1.37s-.7.3-.5.82.3.61.3.61h-.91l-.02-.04h0Z"/>
    </g>
    <g id="use108">
      <path id="AA" class="cls-20" d="M80.61,124.52l-.11.22h-.15l.11-.19h.15v-.02ZM80.08,124.56l-.07.22h-.15l.07-.19h.15v-.02ZM79.52,124.67l-.04.22-.15.04.04-.22.15-.04ZM78.96,124.86v.22l-.13.07v-.22l.13-.07ZM78.44,125.15l.04.22-.13.09-.04-.22.13-.09Z"/>
    </g>
    <g id="use109">
      <path id="AB" class="cls-20" d="M77.65,126.84l.11.19s-.07.07-.11.11l-.09-.19.04-.04s.02-.04.04-.07h0ZM77.37,127.1v.22s-.07.04-.11.07v-.22s.07-.04.11-.07ZM77.04,127.25l-.04.22-.15.04.04-.22.15-.04ZM76.74,127.32l-.11.22h-.15l.09-.19h.15v-.02h.02Z"/>
    </g>
    <g id="g114">
      <g id="use110">
        <path id="AC" class="cls-9" d="M88.01,89.79s1.59-.74,1.93-.11.52,1.87,0,2.61c0,0-2.24.26-3.39-.11l-.15-.09,1.61-2.28s0-.02,0-.02Z"/>
      </g>
      <g id="g111">
        <g id="use111">
          <path id="AD" class="cls-10" d="M89.57,90.47c.26,0,.5.07.67.15.09.56,0,1.19-.3,1.65,0,0-1.98.24-3.17-.07.56-.18,1.56-1.11,2.24-1.56.18-.13.37-.18.56-.18h0Z"/>
        </g>
        <path id="path111" class="cls-11" d="M90.25,91.7s-.76-.5-1.98.02-1.22.44-1.22.44"/>
      </g>
      <g id="use112">
        <path id="AC-2" class="cls-11" d="M88.01,89.79s1.59-.74,1.93-.11.52,1.87,0,2.61c0,0-2.24.26-3.39-.11l-.15-.09,1.61-2.28s0-.02,0-.02Z"/>
      </g>
      <path id="path112" class="cls-11" d="M87.56,92.29s-.24,1-.3,3.1.39,3.52.59,3.47"/>
      <g id="use113">
        <path id="AE" class="cls-11" d="M86.43,92.01s-.91.89-1.02,2.89l-.09,3.39s1.48.85,2.89.5c0,0-.24-.59-.28-1.41-.02-.82.02-5.1.02-5.1"/>
      </g>
      <path id="path113" class="cls-11" d="M99.98,82.67s-.74,2.93-.82,4.28"/>
      <path id="path114" class="cls-11" d="M105.6,76.67s-.74-.98-2.93-.13"/>
    </g>
  </g>
  <g id="g141">
    <path id="path115" class="cls-8" d="M122.15,72.81l.39-12.73,1.87-.98.52,13.7h-2.78Z"/>
    <path id="path116" class="cls-9" d="M122.91,48.42s-.18,0-.48-.28-.48-.28-.24-.7.54-.93,1.56-.87c1.02.07,1.8.11,2.15,1.17.35,1.07.48,3.84.18,5.02-1.56-.07-3.89-1.28-4.25-2.11-.37-.82,1.08-2.22,1.08-2.22h0v-.02h0Z"/>
    <g id="g136">
      <g id="use116">
        <path id="B-7" class="cls-14" d="M137.2,80.69l-3.95,8.14-.91-.44-7.06,12.99-.07-2.19,6.71-11.49-.3-.24.45-.5.22.13h0s.45-.07.5.11l4.41-6.49v-.02h0Z"/>
      </g>
      <g id="use117">
        <path id="C-2" class="cls-1" d="M137.2,80.69l-3.95,8.14-.91-.44.48-1.24,4.39-6.45v-.02ZM129.19,92.38c.24.09.56.22.81.35l-.98,1.8c-.15-.11-.48-.33-.78-.35-.02,0-.04,0-.07-.02l1.02-1.76v-.02h0Z"/>
      </g>
      <g id="g119">
        <g id="use118">
          <path id="D-4" class="cls-11" d="M132.05,86.97l.19.11-.35.61-.3-.24.45-.5v.02h0Z"/>
        </g>
        <g id="use119">
          <path id="B-8" class="cls-11" d="M137.2,80.69l-3.95,8.14-.91-.44-7.06,12.99-.07-2.19,6.71-11.49-.3-.24.45-.5.22.13h0s.45-.07.5.11l4.41-6.49v-.02h0Z"/>
        </g>
      </g>
      <g id="g124">
        <g id="use120">
          <path id="B-9" class="cls-14" d="M134.62,77.61l-3.1,8.49-.96-.35-5.69,13.62-.28-2.19,5.5-12.07-.35-.19.39-.54.24.11h0s.44-.11.52.04l3.71-6.88.02-.02h0Z"/>
        </g>
        <g id="use121">
          <path id="E-3" class="cls-1" d="M134.62,77.61l-3.1,8.49-.96-.35.35-1.28,3.69-6.84.02-.02h0Z"/>
        </g>
        <g id="g123">
          <g id="use122">
            <path id="D-5" class="cls-11" d="M130.14,84.36l.22.09-.28.65-.33-.19s.39-.54.39-.54Z"/>
          </g>
          <g id="use123">
            <path id="B-10" class="cls-11" d="M134.62,77.61l-3.1,8.49-.96-.35-5.69,13.62-.28-2.19,5.5-12.07-.35-.19.39-.54.24.11h0s.44-.11.52.04l3.71-6.88.02-.02h0Z"/>
          </g>
        </g>
      </g>
      <g id="use124">
        <path id="F-3" class="cls-1" d="M134.62,77.61l-3.1,8.49-.96-.35.35-1.28,3.69-6.84.02-.02h0Z"/>
      </g>
      <g id="use125">
        <path id="G-3" class="cls-11" d="M130.14,84.36l.22.09-.28.65-.33-.19s.39-.54.39-.54Z"/>
      </g>
      <g id="use126">
        <path id="H-3" class="cls-1" d="M128.71,88.12c.28.07.52.24.7.39l-.76,1.8c-.22-.13-.52-.26-.78-.35l.82-1.85h.02,0Z"/>
      </g>
      <g id="use127">
        <path id="I-3" class="cls-11" d="M134.62,77.61l-3.1,8.49-.96-.35-5.69,13.62-.28-2.19,5.5-12.07-.35-.19.39-.54.24.11h0s.44-.11.52.04l3.71-6.88.02-.02h0Z"/>
      </g>
      <g id="g135">
        <g id="g132">
          <g id="use128">
            <path id="B-11" class="cls-14" d="M131.25,76.57l-2.45,8.68-.98-.28-4.67,13.96-.44-2.15,4.58-12.42-.35-.18.35-.56.24.09h0s.44-.15.52,0l3.19-7.14h0Z"/>
          </g>
          <g id="use129">
            <path id="E-4" class="cls-1" d="M131.25,76.57l-2.45,8.68-.98-.28.26-1.3,3.19-7.1h-.02Z"/>
          </g>
          <g id="g131">
            <g id="use130">
              <path id="D-6" class="cls-11" d="M127.28,83.62l.22.09-.24.67-.35-.18.35-.56.02-.02h0Z"/>
            </g>
            <g id="use131">
              <path id="B-12" class="cls-11" d="M131.25,76.57l-2.45,8.68-.98-.28-4.67,13.96-.44-2.15,4.58-12.42-.35-.18.35-.56.24.09h0s.44-.15.52,0l3.19-7.14h0Z"/>
            </g>
          </g>
        </g>
        <g id="use132">
          <path id="F-4" class="cls-1" d="M131.25,76.57l-2.45,8.68-.98-.28.26-1.3,3.19-7.1h-.02Z"/>
        </g>
        <g id="use133">
          <path id="G-4" class="cls-11" d="M127.28,83.62l.22.09-.24.67-.35-.18.37-.56v-.02h0Z"/>
        </g>
        <g id="use134">
          <path id="H-4" class="cls-1" d="M126.13,87.47c.28.04.54.19.74.35l-.61,1.85c-.24-.11-.54-.22-.81-.3l.7-1.89s-.02,0-.02,0Z"/>
        </g>
        <g id="use135">
          <path id="I-4" class="cls-11" d="M131.25,76.57l-2.45,8.68-.98-.28-4.67,13.96-.44-2.15,4.58-12.42-.35-.18.35-.56.24.09h0s.44-.15.52,0l3.19-7.12v-.02h0Z"/>
        </g>
      </g>
    </g>
    <g id="g140">
      <g id="g138">
        <path id="path136" class="cls-6" d="M124.99,48.83s-1.26.24-1.19.82"/>
        <path id="path137" class="cls-11" d="M124.41,47.53s-1.44.35-1.91,1.56"/>
        <path id="path138" class="cls-11" d="M123.76,47.71s-.85.7-1.19.45"/>
      </g>
      <path id="path139" class="cls-10" d="M122.32,49.4h-.09l-.18.04c-.24.39-.41.85-.26,1.17.02.07.07.11.11.18l.13-.07s2.76-.24,3.95,1.8l.07.13c.11-.48.15-1.22.15-1.98-1.91-1.28-3.54-1.3-3.91-1.3h0l.02.02h0Z"/>
      <path id="path140" class="cls-6" d="M125.54,49.49s-.65.28-.65.59"/>
    </g>
  </g>
  <g id="g236">
    <path id="path141" class="cls-18" d="M138.57,105.8l-.19,7.8-10.51-.67,10.68-7.12h.02,0Z"/>
    <g id="g142">
      <path id="path142" class="cls-21" d="M159.37,96.7s-.76,12.83-4.78,19.26l-16.35-2.35.45-7.8,20.68-13.7v4.58h0Z"/>
      <g id="use142">
        <path id="J-2" class="cls-9" d="M144.06,77c-.98.41-1.87.09-1.87.09,0,0-.44.54.74.61,0,0,.45.04.15.54"/>
      </g>
    </g>
    <g id="use143">
      <path id="K-2" class="cls-10" d="M145.43,76.03s-1.76-1.39-2.87-1.3-1.15.07-1.26.26-.28,1.07.19,1.7c.5.63.7.48.78.35s.78-.54,2.11-.24"/>
    </g>
    <g id="use144">
      <path id="L-2" class="cls-9" d="M142.7,74.72h-.11c-1.11.09-1.15.07-1.26.26-.07.13-.18.59-.09,1.07.18-.15.5-.3,1.22-.26,1.39.07,2.22.63,2.22.63l.13.09.63-.45s-1.65-1.3-2.76-1.3h0l.02-.02h0Z"/>
    </g>
    <path id="path144" class="cls-18" d="M125.02,107.95l12.51-11.1,1.85,4.17-1.15,4.65-10.23,6.95-2.8-.67-.11-2.5-.07-1.48v-.02ZM125.41,100.8l7.67-9.62,1.93,4.19-.61,3.95-9.16,8.38.15-6.91h.02,0Z"/>
    <g id="g146">
      <g id="use145">
        <path id="M-2" class="cls-21" d="M133.12,91.36s1.54,3.45,1.3,7.9l9.34-8.47,4.45-3.93-.09.07-.59-2.71-.28-1.54-.74.18v-.89l-.13-.76-.63-1.22-.52-1.3-.13-1.08.24-1.3-.33.15-11.94,14.9.04.02h0Z"/>
      </g>
      <g id="use146">
        <path id="N-2" class="cls-9" d="M160.76,92.01s.91.89,1.02,2.89l.09,3.39s-1.48.85-2.89.5c0,0,.24-.59.28-1.41.02-.82-.02-5.1-.02-5.1l1.52-.26h0Z"/>
      </g>
    </g>
    <g id="use147">
      <path id="O-2" class="cls-10" d="M159.92,92.27l-.67.04v5.06c0,.82-.24,1.41-.24,1.41.5.13,1.04.09,1.5,0l.15-3.91c-.02-1.33-.74-2.63-.74-2.63h0v.02h0Z"/>
    </g>
    <g id="use148">
      <path id="P-2" class="cls-17" d="M171.71,128.53c.28-.72,1.04-.87,1.04-.87,0,0,.07-.04-.18-.56s-.11-.89-.11-.89c.09-2.74-.19-3.47-.19-3.47.19,0,1.08,1.04,1.08,1.04-.02-2.61-3.99-3.82-3.99-3.82,1.45,3.58.89,3.99.89,3.99.91-.39,1.04-.98,1.04-.98.18.98.02,2.89.02,2.89,0,0,.07.89-.81.45s-4.34-2.06-4.34-2.06l-.37.72,4.8,2.17s.7.3.5.82-.3.61-.3.61h.91v-.04h0Z"/>
    </g>
    <g id="g154">
      <g id="g150">
        <g id="use149">
          <path id="Q-2" class="cls-11" d="M171.32,125.82s.13-1.91-.02-2.89c0,0-.11.61-1.04.98,0,0,.56-.41-.89-3.99,0,0,3.98,1.22,3.99,3.82,0,0-.89-1.04-1.08-1.04,0,0,.28.74.19,3.47"/>
        </g>
        <g id="use150">
          <path id="R-2" class="cls-11" d="M171.71,128.53c.28-.72,1.04-.87,1.04-.87,0,0,.07-.04-.18-.56s-.11-.89-.11-.89c.09-2.74-.19-3.47-.19-3.47.19,0,1.08,1.04,1.08,1.04-.02-2.61-3.99-3.82-3.99-3.82,1.45,3.58.89,3.99.89,3.99.91-.39,1.04-.98,1.04-.98.18.98.02,2.89.02,2.89,0,0,.07.89-.81.45s-4.34-2.06-4.34-2.06l-.37.72,4.8,2.17s.7.3.5.82-.3.61-.3.61"/>
        </g>
      </g>
      <g id="g153">
        <g id="use151">
          <path id="S-2" class="cls-14" d="M164.39,123.26c-.18,0-.37.07-.52.18-.09.07-.18.18-.19.3s0,.3.09.48c.19.39.56.52.87.56s.56,0,.56,0l-.04-.22s-.22.04-.5,0-.54-.13-.7-.44c-.09-.15-.09-.26-.09-.35s.04-.13.11-.18c.11-.09.3-.11.37-.11.09,0,.18,0,.35.07s.39.26.67.65l.19-.13c-.3-.41-.56-.63-.76-.72s-.37-.09-.44-.09h0l.02-.02h0Z"/>
        </g>
        <g id="use152">
          <path id="T-2" class="cls-14" d="M164.76,125.71s.11-1.8,1.28-2.41c0,0,.28.02.3.24.02.22-1.08,2.13-1.08,2.13l-.5.04h0Z"/>
        </g>
        <g id="use153">
          <path id="U-2" class="cls-14" d="M164.89,125.52s.09-1.5,1.07-2.02c0,0,.24.02.26.19s-.91,1.76-.91,1.76l-.41.04v.02h0Z"/>
        </g>
        <ellipse id="circle153" class="cls-14" cx="154.16" cy="121.13" rx="1.26" ry="1.22"/>
      </g>
    </g>
    <g id="use154">
      <path id="V-2" class="cls-18" d="M170.27,108.42s2.11.11,2.08,1.13c-.02,1.02-.35,2.02.37,2.19.72.18,2.17.19,2.52.56s.37.81.37.81c0,0-1.82-.63-2.63-.19s-1.65-.26-1.78-.5c-.28-.52-.13-1.54-.67-1.72-.56-.19-2.32-.22-2.32-.22l2.06-2.08v.02h0Z"/>
    </g>
    <path id="path154" class="cls-21" d="M154.94,94.44c.33-5.54-.65-12.05-.65-12.05l-.09-.96-17.09,15.92s1.24-1.28.82,5.3l1.48,2.26,15.53-10.45v-.02h0Z"/>
    <g id="g173">
      <path id="path155" class="cls-11" d="M154.94,94.44c.33-5.54-.65-12.05-.65-12.05l-.09-.96"/>
      <g id="g165">
        <g id="use155">
          <path id="W-4" class="cls-14" d="M150.36,69.31l-2.28,5.19s-.67-.65-1.19.02l-.54.67M150.36,69.29l-4.41,3.67s.85.41.33,1.13l-.5.7.56.41"/>
        </g>
        <g id="g157">
          <g id="use156">
            <path id="X-4" class="cls-14" d="M144.59,73.66l3.15,2.24-.82,1.11-3.15-2.24.82-1.11Z"/>
          </g>
          <g id="use157">
            <path id="Y-4" class="cls-14" d="M144.65,74l2.71,1.93-.54.72-2.71-1.93.54-.72Z"/>
          </g>
        </g>
        <g id="g161">
          <g id="use158">
            <path id="W-5" class="cls-14" d="M160.52,75.76l-3.1,4.78s-.54-.76-1.19-.15l-.65.59M160.5,75.76l-4.95,2.93s.76.54.15,1.17l-.61.61.5.5"/>
          </g>
          <g id="g160">
            <g id="use159">
              <path id="X-5" class="cls-3" d="M154.09,79.15l2.74,2.69-1,.96-2.74-2.69,1-.96Z"/>
            </g>
            <g id="use160">
              <path id="Y-5" class="cls-3" d="M154.12,79.5l2.37,2.32-.65.63-2.37-2.32.65-.63Z"/>
            </g>
          </g>
        </g>
        <g id="g164">
          <g id="use161">
            <path id="W-6" class="cls-14" d="M167.12,86.62l-3.91,4.19s-.41-.82-1.15-.35l-.74.48M167.1,86.63l-5.41,2.06s.65.67-.07,1.17l-.72.5.41.56"/>
          </g>
          <g id="g163">
            <g id="use162">
              <path id="X-6" class="cls-14" d="M160.22,88.9l2.22,3.1-1.15.78-2.22-3.1,1.15-.78Z"/>
            </g>
            <g id="use163">
              <path id="Y-6" class="cls-14" d="M160.18,89.23l1.93,2.69-.76.52-1.93-2.69.76-.52Z"/>
            </g>
          </g>
        </g>
        <path id="path164" class="cls-14" d="M145.19,75.78l-19.85,24.56.11.44,20.06-24.74-.3-.24-.02-.02ZM153.77,81.78l-28.71,25.93.26.28,28.71-25.93s-.26-.28-.26-.28ZM158.4,92.16l-30.58,20.37.22.33,30.58-20.37-.22-.33h0Z"/>
      </g>
      <g id="use165">
        <path id="Z-3" class="cls-9" d="M155.12,82.13s-2.89-.54-3.58-.13,1.24.44,1.61.33l-.72.72s-1.65-.39-1.93-1.91c-.28-1.52.82-1.52,1.08-1.5s1.7.24,3.56,2.5h-.02Z"/>
      </g>
      <g id="g166">
        <g id="use166">
          <path id="a-2" class="cls-10" d="M150.99,80.54c-.33.09-.56.3-.48.72,0,0,.13.45.26.72l.04-.04c.09.15.19.28.33.39l.28-.09s0-.13.13-.19c.09-.04.18-.09.3-.11.52-.19,1.3,0,1.48,0l.87.04s-2.61-1.56-3.21-1.39h0v-.04h0Z"/>
        </g>
        <path id="path166" class="cls-11" d="M153.97,81.84s-3.21-.93-3.21-.02"/>
      </g>
      <g id="use167">
        <path id="Z-4" class="cls-11" d="M155.12,82.13s-2.89-.54-3.58-.13,1.24.44,1.61.33l-.72.72s-1.65-.39-1.93-1.91c-.28-1.52.82-1.52,1.08-1.5s1.7.24,3.56,2.5h-.02Z"/>
      </g>
      <g id="use168">
        <path id="b-2" class="cls-9" d="M154.75,82.1c-.07.35-.15.82-.11,1.02.93,2.32,2.22,2.39,1.72,5.21h1c.11-1.35-.11-2.58-.35-3.15-.13-.28-.39-.61-.7-.93s-.63-.63-.87-.87c-.45-.48-.15-1.11-.15-1.11l-.52-.19-.02.02h0Z"/>
      </g>
      <g id="use169">
        <path id="c-2" class="cls-10" d="M154.14,81.89s-.18.45-.18,1.07c0,.3.04.67.18,1.04s.24.74.33,1.13c.18.81.28,1.78.3,3.26l1.56-.04c.5-2.84-.78-2.89-1.72-5.21-.04-.22.04-.67.11-1.02l-.61-.22h.02,0Z"/>
      </g>
      <g id="g170">
        <g id="use170">
          <path id="d-2" class="cls-11" d="M155.27,82.3s-.33.63.15,1.11l.87.87c.3.33.59.65.7.93.24.56.45,1.8.35,3.1M157.33,88.31l-2.56.07c-.02-1.48-.13-2.45-.3-3.26-.09-.39-.19-.76-.33-1.13-.11-.33-.18-.7-.18-1.04,0-.63.18-1.07.18-1.07l1.13.41"/>
        </g>
        <path id="path170" class="cls-11" d="M155.6,88.36s.35-1.56-.45-2.95c-.82-1.41-1.07-3.56-.63-3.43"/>
      </g>
      <g id="use171">
        <path id="e-2" class="cls-14" d="M152.73,110.97l-2.22,3.76-8.73.63-.82.11s-1.28,2.93-2.69,3.32-10.9,3.26-10.9,3.26l-.28-2.11,6.15-1.93s1.8-.65,2.35-1.33,4.99-4.84,4.99-4.84l12.18-.87h-.02,0Z"/>
      </g>
      <g id="g172">
        <path id="path171" class="cls-14" d="M148.82,101.37l-12.7,20.61.26.15,12.7-20.61-.26-.15Z"/>
        <g id="use172">
          <path id="f-2" class="cls-1" d="M148.56,102.19s.37.33.81-.19,1.74-2.71,2-3.1c.24-.39.56-.72.15-1-.41-.26-1.02.07-1.5,1.07-.48,1-2.08,2.71-1.45,3.24h0Z"/>
        </g>
      </g>
    </g>
    <g id="g179">
      <g id="g178">
        <g id="use173">
          <path id="g-2" class="cls-14" d="M159.78,105.04c.48-.07,1.28.85,1.5,2.41s0,2.89-.45,2.95c-.18,0-.37-.13-.56-.44l-25.37,3.32-.54-4.67,25.15-2.91c.09-.61,0-.65.26-.67h.02,0Z"/>
        </g>
        <g id="use174">
          <path id="h-2" class="cls-5" d="M135.4,108.53s.15.24.22.39M135.96,108.49s.15.24.22.39M136.53,108.45s.15.24.22.39M137.09,108.4s.15.24.22.39M137.65,108.36s.15.24.22.39M138.22,108.32s.15.24.22.39M138.78,108.28s.15.24.22.39M139.35,108.23s.15.24.22.39M139.91,108.19s.15.24.22.39M140.47,108.15s.15.24.22.39M141.04,108.11s.15.24.22.39M141.6,108.06s.15.24.22.39M142.16,108.02s.15.24.22.39M142.73,107.98s.15.24.22.39M143.29,107.93s.15.24.22.39M143.86,107.89s.15.24.22.39M144.42,107.85s.15.24.22.39M144.98,107.81s.15.24.22.39M145.55,107.76s.15.24.22.39M146.11,107.72s.15.24.22.39M146.68,107.68s.15.24.22.39M147.24,107.64s.15.24.22.39M147.8,107.59s.15.24.22.39M148.37,107.55s.15.24.22.39M148.93,107.51s.15.24.22.39M149.49,107.47s.15.24.22.39M150.06,107.42s.15.24.22.39M150.62,107.38s.15.24.22.39M151.19,107.34s.15.24.22.39M151.75,107.3s.15.24.22.39M152.31,107.25s.15.24.22.39M152.88,107.21s.15.24.22.39M153.44,107.17s.15.24.22.39M154,107.12s.15.24.22.39M154.57,107.08s.15.24.22.39M155.13,107.04s.15.24.22.39M155.7,107s.15.24.22.39M156.26,106.95s.15.24.22.39M156.82,106.91s.15.24.22.39M157.39,106.87s.15.24.22.39M157.95,106.83s.15.24.22.39M158.52,106.78s.15.24.22.39M159.08,106.74s.15.24.22.39M159.64,106.7s.15.24.22.39M160.21,106.66s.15.24.22.39"/>
        </g>
        <path id="path174" class="cls-11" d="M160.41,107.25l-25.69,3.36M160.48,107.82l-25.69,3.36M160.55,108.38l-25.69,3.36M160.57,108.66l-25.69,3.36M160.59,108.94l-25.69,3.36M160.62,109.22l-25.69,3.36M160.64,109.5l-25.69,3.36M160.67,109.78l-25.69,3.36"/>
        <g id="g177">
          <g id="use175">
            <path id="i-3" class="cls-14" d="M155.98,105.73c.45-.02.89,1.11,1,2.54h0c.11,1.44-.18,2.61-.63,2.65h0c-.09,0-.18-.04-.26-.11.28-.39.44-1.37.35-2.45-.09-1.13-.37-2.11-.74-2.43.09-.11.18-.18.26-.18h0l.02-.02h0Z"/>
          </g>
          <g id="use176">
            <path id="i-4" class="cls-14" d="M138.02,108.08c.45-.02.89,1.11,1,2.54h0c.11,1.44-.18,2.61-.63,2.65h0c-.09,0-.18-.04-.26-.11.28-.39.44-1.37.35-2.45-.09-1.13-.37-2.11-.74-2.43.09-.11.18-.18.26-.18h0l.02-.02h0Z"/>
          </g>
          <g id="use177">
            <path id="j-2" class="cls-14" d="M134.27,110.16l-1.44-.09s-.87.3-.93.65-.09.91,0,1.04c.07.15,1.74.44,2.32-.07l.04-1.54h0Z"/>
          </g>
        </g>
      </g>
      <g id="use178">
        <path id="k-2" class="cls-20" d="M131.9,110.73c.56.13,1.59.09,2.35,0v.96c-.61.52-2.28.22-2.37.07-.07-.15-.04-.7,0-1.04h0l.02.02h0Z"/>
      </g>
      <g id="use179">
        <path id="l-2" class="cls-14" d="M134.53,108.49s.11.02.18.11c-.13.5-.15,1.35-.09,2.24.07,1.02.26,1.96.5,2.37-.07.19-.15.28-.24.3-.15,0-.3-.24-.45-.7-.13-.45-.24-1.08-.28-1.76s-.02-1.3.04-1.78.19-.76.35-.76h0v-.02h0Z"/>
      </g>
    </g>
    <g id="g197">
      <g id="g181">
        <g id="use180">
          <path id="m-2" class="cls-14" d="M148.97,108.53h0c-.28.09-.5.33-.5.63v4.21l3.06-2.98c.22-.22.24-.54.09-.78h0l1.33,1.28h0c-.26-.19-.63-.18-.87.04l-3.13,3.04h4.43c.3,0,.56-.22.63-.5h0v1.82h0c-.04-.33-.3-.56-.65-.56h-4.41l3.15,3.06c.22.22.54.24.81.09h0l-1.33,1.3h0c.19-.26.19-.61-.04-.85l-3.13-3.04v4.32c0,.3.22.54.5.61h-1.89c.33-.04.59-.3.59-.63v-4.39l-3.19,3.1c-.24.24-.26.59-.04.85h0l-1.33-1.28h0c.26.15.59.11.81-.11l3.15-3.06h-4.41c-.33,0-.61.24-.65.56h0v-1.82h0c.07.28.33.5.63.5h4.43l-3.13-3.04c-.24-.24-.61-.24-.87-.04h0l1.33-1.3h0c-.15.26-.13.59.09.81l3.15,3.06v-4.3c0-.33-.26-.59-.59-.63h1.89l.11.02h0Z"/>
        </g>
        <ellipse id="circle180" class="cls-14" cx="148.06" cy="114.46" rx="1.19" ry="1.17"/>
        <g id="use181">
          <path id="n-2" class="cls-14" d="M148.06,106.69c4.36,0,7.9,3.45,7.9,7.71h0c0,4.25-3.54,7.71-7.9,7.71s-7.9-3.45-7.9-7.71,3.54-7.71,7.9-7.71h0ZM148.06,108.65c-3.26,0-5.91,2.56-5.91,5.73s2.65,5.73,5.91,5.73,5.91-2.56,5.91-5.73-2.65-5.73-5.91-5.73Z"/>
        </g>
      </g>
      <circle id="circle181" class="cls-20" cx="148.06" cy="107.64" r=".26"/>
      <circle id="circle182" class="cls-20" cx="148.06" cy="121.09" r=".26"/>
      <g id="g184">
        <circle id="circle183" class="cls-20" cx="143.19" cy="109.62" r=".26"/>
        <circle id="circle184" class="cls-20" cx="152.94" cy="119.11" r=".26"/>
      </g>
      <g id="g186">
        <circle id="circle185" class="cls-20" cx="152.94" cy="109.62" r=".26"/>
        <circle id="circle186" class="cls-20" cx="143.19" cy="119.11" r=".26"/>
      </g>
      <g id="g188">
        <circle id="circle187" class="cls-20" cx="154.97" cy="114.37" r=".26"/>
        <circle id="circle188" class="cls-20" cx="141.15" cy="114.37" r=".26"/>
      </g>
      <g id="g190">
        <circle id="circle189" class="cls-20" cx="154.46" cy="116.89" r=".26"/>
        <circle id="circle190" class="cls-20" cx="141.67" cy="111.83" r=".26"/>
      </g>
      <g id="g192">
        <circle id="circle191" class="cls-20" cx="141.74" cy="117.03" r=".26"/>
        <circle id="circle192" class="cls-20" cx="154.4" cy="111.71" r=".26"/>
      </g>
      <g id="g194">
        <circle id="circle193" class="cls-20" cx="145.37" cy="108.19" r=".26"/>
        <circle id="circle194" class="cls-20" cx="150.77" cy="120.54" r=".26"/>
      </g>
      <g id="g196">
        <circle id="circle195" class="cls-20" cx="150.77" cy="108.19" r=".26"/>
        <circle id="circle196" class="cls-20" cx="145.37" cy="120.54" r=".26"/>
      </g>
    </g>
    <ellipse id="circle197" class="cls-14" cx="157.2" cy="121.13" rx="1.26" ry="1.22"/>
    <g id="g200">
      <g id="use197">
        <path id="o-2" class="cls-1" d="M126.41,104.95s3.08,1.3,3.34-.93c0,0,1.87,2.28-.7,3.73,0,0,1.17-1.8-2.65-2.02,0,0-.52.04-.48-.37s.48-.41.48-.41h0Z"/>
      </g>
      <g id="use198">
        <path id="p-2" class="cls-20" d="M125.91,105.45c.44.04,1.44.15,2.98.45.7.13,1.17.04,1.5-.13,0,.65-.3,1.39-1.35,1.98,0,0,1.17-1.8-2.65-2.02,0,0-.48.04-.48-.28h0Z"/>
      </g>
      <g id="g199">
        <path id="path198" class="cls-1" d="M127.75,104.93l.26.04-1.07,6.93-.26-.04,1.07-6.93Z"/>
        <path id="path199" class="cls-1" d="M127.64,104.93l.48.07-.22,1.39-.48-.07.22-1.39Z"/>
      </g>
    </g>
    <g id="g206">
      <g id="g202">
        <ellipse id="ellipse200" class="cls-1" cx="133.68" cy="123.41" rx="1.87" ry=".87"/>
        <g id="g201">
          <g id="use200">
            <path id="q-2" class="cls-14" d="M133.51,113.22c.18,0,.35,0,.39.13.09.19-.18.24-.18.24v1.15c0,.37.3,5.76.44,6.82.04.39.15.7.24.96,0,0,1.33.15,1.26.74s-.78.98-1.98.93c-1.48-.04-1.89-.33-1.96-.7s.35-.7.98-.81l.33-1.8s-.07.26-.91.09c-.85-.18-.82-1.44-.82-1.44v-4.45c.07-.7.45-1.02,1.02-1.24.44-.07.74.02.78.26s.15.3.24.22c.07-.09,0-.76,0-.76,0,0-.33-.15-.18-.24.07-.04.24-.09.41-.11h-.07,0ZM132.4,114.5l-.3.15-.09.81v4.08l.04.26.39.3.44-.09.24-.26.15-3.65.04-1.17-.54-.37-.37-.09v.02h0Z"/>
          </g>
          <g id="use201">
            <path id="r-2" class="cls-11" d="M132.55,123.11s.5-1.26.63-4.56v-3.71c-.15-.15-.63-.44-.89-.26s-.22.19-.26.76-.04,4.19-.04,4.19c0,0,.13.61.48.59s.61-.15.65-.41"/>
          </g>
        </g>
        <path id="path201" class="cls-11" d="M134.77,123.17s-.48-.56-.63-1.61-.44-6.45-.44-6.82v-1.15"/>
      </g>
      <g id="g205">
        <g id="use202">
          <path id="s-2" class="cls-1" d="M140.35,119.26s-1.7.04-2.24,1.07-.24,1.98.39,2.37,2.04.67,2.69.28c.65-.39,1.08-1.65.35-1.78s-2-.39-1.85-.87.81-.48.81-.48l-.15-.59h0Z"/>
        </g>
        <path id="path202" class="cls-1" d="M140.11,119.04l.3-.04.24,1.07-.3.04-.24-1.07Z"/>
        <g id="g204">
          <path id="path203" class="cls-1" d="M164.11,113.96l-7.14,3.62.04.07.5.09,6.78-3.43-.18-.35h0Z"/>
          <path id="path204" class="cls-1" d="M164.32,114.14l-4.02,6.93.65-.35,3.71-6.41-.35-.19v.02h0Z"/>
        </g>
      </g>
    </g>
    <g id="use206">
      <path id="t-2" class="cls-20" d="M171.19,107.38s-.11.02-.13.07l-6.78,6.56s-.09.19,0,.26.19.07.28,0l6.67-6.43v-.44h-.02l-.02-.02h0Z"/>
    </g>
    <g id="g221">
      <g id="use207">
        <path id="u-2" class="cls-1" d="M165.39,113.01s-.11.02-.13.07l-6.73,6.49h.59l6.41-6.23c.09-.07.09-.19,0-.26-.04-.04-.09-.07-.15-.07h.02Z"/>
      </g>
      <g id="g216">
        <ellipse id="circle207" class="cls-14" cx="139.9" cy="126.04" rx="1.26" ry="1.22"/>
        <ellipse id="circle208" class="cls-14" cx="142.89" cy="123.58" rx="1.26" ry="1.22"/>
        <ellipse id="circle209" class="cls-14" cx="147.49" cy="123.86" rx="1.26" ry="1.22"/>
        <ellipse id="circle210" class="cls-14" cx="150.99" cy="125.73" rx="1.26" ry="1.22"/>
        <ellipse id="circle211" class="cls-14" cx="154.03" cy="125.73" rx="1.26" ry="1.22"/>
        <ellipse id="circle212" class="cls-14" cx="157.09" cy="125.73" rx="1.26" ry="1.22"/>
        <ellipse id="circle213" class="cls-14" cx="160.13" cy="125.73" rx="1.26" ry="1.22"/>
        <ellipse id="circle214" class="cls-14" cx="152.53" cy="123.47" rx="1.26" ry="1.22"/>
        <ellipse id="circle215" class="cls-14" cx="155.6" cy="123.47" rx="1.26" ry="1.22"/>
        <ellipse id="circle216" class="cls-14" cx="158.63" cy="123.47" rx="1.26" ry="1.22"/>
      </g>
      <g id="use216">
        <path id="v-2" class="cls-10" d="M146.06,76.61s-.11.96.74,1.54c.85.59,1.82,1.19,2.22,2.82s.11,1.44.11,1.44l-2.61.44s.3-1.15-.35-2.06-1.56-3.54-.7-4.61l.59.44h0Z"/>
      </g>
      <g id="g220">
        <g id="use217">
          <path id="w-2" class="cls-9" d="M146,76.57c-.15.37-.44,1.26.18,1.89.78.81,1.52,1.19,1.82,2.3.15.59.28,1.19.37,1.8l.76-.13s.3.19-.11-1.44c-.39-1.63-1.37-2.26-2.22-2.82s-.74-1.54-.74-1.54l-.09-.07h.02,0Z"/>
        </g>
        <path id="path217" class="cls-11" d="M145.67,76.13s-.5,1.11.04,2.19c.54,1.11,1.08,1.63,1.37,2.35s0,1.39.35,1.91"/>
        <g id="g219">
          <g id="use218">
            <path id="x-2" class="cls-1" d="M166.08,124.54s-.09.07-.09.11c0,.07.07.09.11.09h0s1.78-.28,3.1,1.04c.04.04.11.04.15,0s.04-.11,0-.15h0c-1.39-1.39-3.28-1.11-3.28-1.11h0v.02h0Z"/>
          </g>
          <g id="use219">
            <path id="y-2" class="cls-1" d="M169.19,126.49s0,.28.22.54.67.52,1.56.54v-.19c-.82-.02-1.22-.26-1.39-.48s-.18-.39-.18-.39h-.22v-.02h0Z"/>
          </g>
        </g>
      </g>
    </g>
    <g id="use221">
      <path id="z-2" class="cls-17" d="M171.71,128.53c.28-.72,1.04-.87,1.04-.87,0,0,.07-.04-.18-.56s-.11-.89-.11-.89c.09-2.74-.19-3.47-.19-3.47.19,0,1.08,1.04,1.08,1.04-.02-2.61-3.99-3.82-3.99-3.82,1.45,3.58.89,3.99.89,3.99.91-.39,1.04-.98,1.04-.98.18.98.02,2.89.02,2.89,0,0,.07.89-.81.45-.45-.24-2.71-1.28-2.71-1.28l-.22.74,3,1.37s.7.3.5.82-.3.61-.3.61h.91l.02-.04h0Z"/>
    </g>
    <g id="use222">
      <path id="AA-2" class="cls-20" d="M166.58,124.52l.11.22h.15l-.11-.19h-.15v-.02ZM167.1,124.56l.07.22h.15l-.07-.19h-.15v-.02ZM167.67,124.67l.04.22.15.04-.04-.22-.15-.04ZM168.23,124.86v.22l.13.07v-.22l-.13-.07ZM168.75,125.15l-.04.22.13.09.04-.22-.13-.09Z"/>
    </g>
    <g id="use223">
      <path id="AB-2" class="cls-20" d="M169.54,126.84l-.11.19.11.11.09-.19-.04-.04s-.02-.04-.04-.07h0ZM169.82,127.1v.22s.07.04.11.07v-.22s-.07-.04-.11-.07ZM170.15,127.25l.04.22.15.04-.04-.22-.15-.04ZM170.45,127.32l.11.22h.15l-.09-.19h-.15v-.02h-.02Z"/>
    </g>
    <g id="g235">
      <g id="use224">
        <path id="AC-3" class="cls-9" d="M159.18,89.79s-1.59-.74-1.93-.11c-.35.63-.52,1.87,0,2.61,0,0,2.24.26,3.39-.11l.15-.09-1.61-2.28s0-.02,0-.02Z"/>
      </g>
      <g id="g225">
        <g id="use225">
          <path id="AD-2" class="cls-10" d="M157.61,90.47c-.26,0-.5.07-.67.15-.09.56,0,1.19.3,1.65,0,0,1.98.24,3.17-.07-.56-.18-1.56-1.11-2.24-1.56-.18-.13-.37-.18-.56-.18h0Z"/>
        </g>
        <path id="path225" class="cls-11" d="M156.94,91.7s.76-.5,1.98.02,1.22.44,1.22.44"/>
      </g>
      <g id="use226">
        <path id="AC-4" class="cls-11" d="M159.18,89.79s-1.59-.74-1.93-.11c-.35.63-.52,1.87,0,2.61,0,0,2.24.26,3.39-.11l.15-.09-1.61-2.28s0-.02,0-.02Z"/>
      </g>
      <path id="path226" class="cls-11" d="M159.63,92.29s.24,1,.3,3.1-.39,3.52-.59,3.47"/>
      <g id="use227">
        <path id="AE-2" class="cls-11" d="M160.76,92.01s.91.89,1.02,2.89l.09,3.39s-1.48.85-2.89.5c0,0,.24-.59.28-1.41.02-.82-.02-5.1-.02-5.1"/>
      </g>
      <path id="path227" class="cls-11" d="M147.21,82.67s.74,2.93.82,4.28"/>
      <g id="g234">
        <path id="path228" class="cls-10" d="M139.02,105.23s.82-.87.87-1.24.04-.98-.48-1-2.93-.41-3.67.18c-.74.56-.87.87-.72,1.17.15.3.74.76,1.24.74s.98.19,1.17.09,1.04-1.11,1.28-.22v.3h.28l.02-.02h0Z"/>
        <path id="path229" class="cls-15" d="M136.68,108.53s.5-2.32,1.33-3.34c0,0,1.04-.26,1.44,0s-.07-.33.39.22c.44.54.44,2.58.44,2.58l.54.48c-1.44.65-4.15.04-4.15.04h0l.02.02h-.01Z"/>
        <path id="path230" class="cls-7" d="M140.7,108.42c-1.33.7-4.04.15-4.04.15,0,0-.44,1.02,0,.87s.22.37.67,0,.44-.48.44-.48c0,0,2.54,0,3.04-.15l-.11-.37v-.02h0Z"/>
        <path id="path231" class="cls-11" d="M138.28,105.54c.13.02.26.04.41.07M138.28,105.82s.18.04.41.07M138.28,106.12c.13.02.26.04.39.07M138.27,106.43s.18.04.39.04M138.25,106.71c.13.02.26.04.39.04M138.23,106.99s.15.04.39.04M138.21,107.29s.15.02.39.04M138.19,107.59c.13,0,.26.02.39.02M138.17,107.88s.15.02.39.02M138.15,108.16s.15.02.39,0M138.13,108.45h.39M139.07,105.65c.18-.02.33-.09.41-.22M139.05,105.93c.19-.02.37-.11.5-.24M139.02,106.21c.22-.04.44-.11.61-.26M139,106.49c.24-.04.48-.13.7-.28M138.98,106.77c.26-.04.52-.13.78-.3M138.96,107.06c.3-.04.61-.18.87-.33M138.93,107.34c.35-.07.67-.18.96-.35M138.89,107.62c.37-.07.74-.19,1.07-.39M138.87,107.88c.41-.07.78-.22,1.15-.41M138.85,108.14c.35-.07.78-.19,1.24-.44M138.82,108.42c.37-.07.85-.19,1.33-.45"/>
        <g id="g233">
          <path id="path232" class="cls-10" d="M138.11,104.32l-.87.82M137.55,104.32l-.59.81M136.96,104.3l-.28.81M136.39,104.28v.78M135.83,104.26l.33.78M135.27,104.23l.61.76"/>
          <path id="path233" class="cls-10" d="M135.59,104.3l.39.74"/>
        </g>
      </g>
      <path id="path234" class="cls-11" d="M141.57,76.67s.74-.98,2.93-.13"/>
    </g>
  </g>
  <path id="path236" class="cls-14" d="M124.99,72.75s.89,28.08.15,38.61M124.99,72.75c-1.07-.15-2.82,0-2.82,0,0,0-.89,28.08-.15,38.61,0,0,1.93-.24,3.15,0"/>
  <path id="path237" class="cls-20" d="M123.5,74.03h-.56l-.81.02v.13h2.91v-.13l-1.54-.02h0ZM123.5,75h-.56l-.81.02v.13h2.98v-.13l-1.59-.02h-.02,0ZM123.5,75.98h-.56l-.82.02v.13h3.02v-.13l-1.63-.02h0ZM123.5,76.95h-1.41v.13h3.08v-.13l-1.67-.02v.02ZM122.91,77.93h-.85v.15h3.13v-.13h-2.26l-.02-.02h0ZM122.91,78.91h-.87v.15h3.17v-.13h-2.3v-.02h0ZM122.91,79.88h-.87v.15h3.21v-.11h-2.35v-.04ZM122.91,80.86h-.87v.15h3.26v-.11h-2.39v-.04h0ZM122.91,81.83h-.89v.15h3.3v-.11h-2.41v-.04ZM122.91,82.81h-.89v.13l3.34.02v-.13l-2.45-.02ZM122.91,83.79h-.91v.13l3.39.02v-.13l-2.5-.02h.02ZM122.91,84.76h-.91v.13l3.43.02v-.13l-2.52-.02h0ZM121.98,85.74v.13l3.45.02v-.13l-3.47-.02h.02,0ZM121.98,86.71v.13l3.5.04v-.13l-3.5-.04ZM121.98,87.69v.13l3.54.04v-.13l-3.54-.04h0ZM121.98,88.67v.13l3.56.04v-.13l-3.56-.04ZM121.98,89.64v.13l3.58.04v-.13l-3.58-.04ZM121.98,90.62v.13l3.61.04v-.13l-3.61-.04ZM121.98,91.59v.13l3.65.04v-.13c-1.48,0-2.76,0-3.65-.04h0ZM121.98,92.57v.13l3.65.04v-.13c-1.22,0-2.43,0-3.65-.04ZM121.98,93.55v.13l3.67.04v-.13c-1.5,0-2.8,0-3.67-.04h0ZM121.98,94.52v.13l3.69.04v-.13c-1.52,0-2.8,0-3.69-.04h0ZM121.98,95.5v.13l3.71.04v-.13c-1.52.02-2.82,0-3.71-.04h0ZM121.98,96.47v.13l3.71.04v-.13c-1.52.02-2.82,0-3.71-.04ZM121.98,97.45v.13l3.71.04v-.13c-1.54.04-2.84,0-3.71-.04h0ZM121.98,98.43v.13l3.71.04v-.13c-1.24.04-2.48,0-3.71-.04h0ZM121.98,99.4v.13l3.71.04v-.13c-1.54.04-2.84,0-3.71-.04ZM121.98,100.38v.13c.89.07,2.17.11,3.71.04v-.13c-1.54.07-2.82,0-3.71-.04ZM121.98,101.35v.13c.89.07,2.17.11,3.71.04v-.13c-1.54.07-2.82,0-3.71-.04h0ZM121.98,102.33v.13c.89.07,2.17.11,3.69.04v-.13c-1.52.07-2.8,0-3.69-.04h0ZM121.98,103.31v.13c1.22.09,2.45.11,3.67.04v-.13c-1.52.07-2.8.02-3.67-.04h0ZM121.98,104.28v.13c.89.07,2.13.11,3.65.04v-.13c-1.52.09-2.78.02-3.65-.04h0ZM121.98,105.26v.13c.87.07,2.13.11,3.61.04v-.13c-1.5.09-2.74.04-3.61-.04h0ZM122,106.23v.13c.87.07,2.08.13,3.56.02v-.13c-1.48.09-2.69.04-3.56-.02ZM122.02,107.21v.13c.87.07,2.06.13,3.52.02v-.13c-1.45.09-2.65.04-3.52-.02h0ZM122.05,108.19v.13c.85.07,2.04.11,3.45.02v-.13c-1.41.09-2.61.04-3.45-.02ZM122.09,109.16v.13c.85.07,2,.11,3.36,0v-.13c-1.37.09-2.54.04-3.36,0h0ZM122.13,110.14v.13c1.08.09,2.17.09,3.26,0v-.13c-1.33.09-2.45.07-3.26,0h0Z"/>
  <g id="g264">
    <path id="path238" class="cls-11" d="M124.32,109.88l.65.07M124.32,108.91l.67.07M124.32,107.93l.67.04M124.32,106.95l.7.04M124.32,105.98l.7.04M124.32,105l.72.04M124.32,104.03l.72.04M124.32,103.05l.74.04M124.32,102.07l.74.04M124.32,101.1l.76.04M124.32,100.12h.76M124.32,99.15h.78M124.32,98.17h.78M124.32,97.19h.81M124.32,96.22h.82M124.34,95.24h.82M124.34,94.27h.85M124.36,93.29h.85M124.35,92.31h.87M124.32,91.34h.87M124.3,90.36h.89M124.27,89.39h.89M124.25,88.41h.91M124.23,87.43h.91M124.21,86.46h.93M124.19,85.48h.93M124.17,84.51h.96M124.15,83.53h.96M124.13,82.55h.98M124.1,81.58h.98M124.08,80.6h1M124.06,79.63h1M124.04,78.65h1.02M124.02,77.67h1.02M123.99,76.7l1.04-.04M123.97,75.72l1.04-.04M123.95,74.75l1.07-.04M123.93,73.77l1.07-.04M122.17,109.95l.65.07M122.15,108.97l.67.07M122.13,108l.67.04M122.1,107l.7.04M122.09,106.02l.7.04M122.07,105.04l.72.04M122.04,104.07l.72.04M122.02,103.09l.74.04M122,102.12l.74.04M121.98,101.14l.76.04M121.96,100.16h.76M121.93,99.19h.78M121.91,98.21h.78M121.89,97.24h.81M121.87,96.26h.82M121.87,95.28h.82M121.87,94.31h.85M121.89,93.33h.85M121.91,92.36h.87M121.93,91.38h.87M121.95,90.4h.89M121.98,89.43h.89M122,88.45h.91M122.02,87.48h.91M122.05,86.5h.93M122.07,85.52h.93M122.09,84.55h.96M122.11,83.57h.96M122.13,82.6h.98M122.15,81.62h.98M122.17,80.64h1M122.19,79.67h1M122.22,78.69h1.02M122.24,77.72h1.02M122.26,76.74l1.04-.04M122.28,75.74l1.04-.04M122.28,74.76l1.07-.04M122.3,73.79l1.07-.04"/>
    <path id="path239" class="cls-1" d="M100.13,127.84l-.87,3.73c5.8,2.61,22.11,2.74,23.63,2.74h.3c1.52,0,18.33-.13,24.13-2.74l-.87-3.73s-.72,2.39-23.41,2.82c-22.69-.41-22.91-2.82-22.91-2.82h0Z"/>
    <g id="g244">
      <g id="g241">
        <path id="path240" class="cls-1" d="M142.39,127.32c.33-.81,2.93-.74,4.97-.13,2.04.63,3.19.44,7.58.5,4.39.07,6.88,1.04,7.25,1.17s6.99,3.28,9.56,4.08c2.54.81,4.97,0,4.97,0,0,0-2.93,2.78-7.06.56,0,0,3.43,1.87,5.67,2.11,0,0-3.32.67-6.13-.5-.26-.11-.5-.22-.74-.37-1.76-.85-3.32-1.52-4.73-2.02-8.06-2.91-11.19-1.07-16.7-2.43"/>
        <path id="path241" class="cls-11" d="M163.98,132.57c2.58.85,3.84,1.63,5.25,2.15M164.3,132.09c2.24.78,3.54,1.52,4.91,2.04M164.63,131.61c1.91.7,3.24,1.41,4.56,1.93M164.94,131.16c1.56.63,2.93,1.3,4.24,1.82M165.27,130.7l3.89,1.72"/>
      </g>
      <path id="path242" class="cls-11" d="M160.96,131.33s-3.62-1.07-6.43-.74M160.55,130.66s-3.41-.93-6.39-.67M160.13,129.99s-3.17-.81-6.36-.63M159.72,129.32s-2.95-.67-6.32-.59M159.31,128.64s-2.74-.54-6.3-.54"/>
      <path id="path243" class="cls-11" d="M149.69,128.06l-3.28-.63c-1.39-.19-2.8-.28-3.21.09M150,128.62s-1.91-.22-3.45-.59M150.3,129.18s-2.19-.02-3.62-.54M150.61,129.75s-2.45.15-3.8-.5M150.91,130.27s-2.74.3-3.98-.41"/>
      <path id="path244" class="cls-1" d="M142.41,127.19c.37.72,2.54.3,3.93.76-.33.28-1.28.78-3.98,1.28-.45-1.63.04-2.04.04-2.04h0Z"/>
    </g>
    <g id="g256">
      <path id="path245" class="cls-14" d="M118.93,113.37h9.27v8.42h-9.27v-8.42Z"/>
      <g id="g248">
        <path id="path246" class="cls-4" d="M123.52,121.48c.61,0,1.19-.02,1.74-.09M123.52,121.02c.61,0,1.19-.02,1.74-.09M123.52,120.57c.61,0,1.19-.02,1.74-.09M123.52,120.11c.61,0,1.19-.02,1.74-.09M123.52,119.66c.61,0,1.19-.02,1.74-.09M123.52,119.2c.61,0,1.19-.02,1.74-.09M123.52,118.75c.61,0,1.19-.02,1.74-.09M123.52,118.29c.61,0,1.19-.02,1.74-.09M123.52,117.84c.61,0,1.19-.02,1.74-.09M123.52,117.38c.61,0,1.19-.02,1.74-.09M123.52,116.93c.61,0,1.19-.02,1.74-.09M123.52,116.47c.61,0,1.19-.02,1.74-.09M123.52,116.02c.61,0,1.19-.02,1.74-.09M123.52,115.56c.61,0,1.19-.02,1.74-.09M123.52,115.11c.61,0,1.19-.02,1.74-.09"/>
        <path id="path247" class="cls-13" d="M128.16,120.69c-.35.19-.85.37-1.44.5M128.16,120.23c-.35.19-.85.37-1.44.5M128.16,119.77c-.35.19-.85.37-1.44.5M128.16,119.32c-.35.19-.85.37-1.44.5M128.16,118.86c-.35.19-.85.37-1.44.5M128.16,118.4c-.35.19-.85.37-1.44.5M128.16,117.94c-.35.19-.85.37-1.44.5M128.16,117.48c-.35.19-.85.37-1.44.5M128.16,117.02c-.35.19-.85.37-1.44.5M128.16,116.56c-.35.19-.85.37-1.44.5M128.16,116.1c-.35.19-.85.37-1.44.5M128.16,115.64c-.35.19-.85.37-1.44.5M128.16,115.18c-.35.19-.85.37-1.44.5M128.16,114.72c-.35.19-.85.37-1.44.5M128.16,114.26c-.35.19-.85.37-1.44.5"/>
        <path id="path248" class="cls-2" d="M121.39,115.03c-.87-.11-1.63-.3-2.17-.52M121.39,115.48c-.87-.11-1.63-.3-2.17-.52M121.39,115.94c-.87-.11-1.63-.3-2.17-.52M121.39,116.39c-.87-.11-1.63-.3-2.17-.52M121.39,116.85c-.87-.11-1.63-.3-2.17-.52M121.39,117.3c-.87-.11-1.63-.3-2.17-.52M121.39,117.76c-.87-.11-1.63-.3-2.17-.52M121.39,118.21c-.87-.11-1.63-.3-2.17-.52M121.39,118.67c-.87-.11-1.63-.3-2.17-.52M121.39,119.12c-.87-.11-1.63-.3-2.17-.52M121.39,119.58c-.87-.11-1.63-.3-2.17-.52M121.39,120.03c-.87-.11-1.63-.3-2.17-.52M121.39,120.49c-.87-.11-1.63-.3-2.17-.52M121.39,120.94c-.87-.11-1.63-.3-2.17-.52M121.39,121.39c-.87-.11-1.63-.3-2.17-.52"/>
      </g>
      <path id="path249" class="cls-10" d="M123.52,110.88c-1.26,0-2.48.13-3.36.35-.89.22-1.39.54-1.39.85,0,.07.02.13.07.19v1.15s-.07.13-.07.19.02.15.07.22v.22h.24c.72.45,2.48.78,4.43.78s3.73-.3,4.43-.78h.3v-.3s.02-.09.02-.13,0-.09-.02-.11v-1.33s.02-.07.02-.11c0-.33-.5-.63-1.39-.85-.89-.22-2.11-.35-3.36-.35h.02,0ZM123.52,111.7h1.24l.24.02h.24l.19.04h.24l.19.04.24.04h.15l.19.07h.13v.02c.65.13,1.13.3,1.44.52-.67.48-2.48.81-4.47.81s-3.8-.33-4.47-.81c.56-.39,1.91-.7,3.54-.78h.48l.45-.02h0l-.02.04h0Z"/>
      <g id="g251">
        <path id="path250" class="cls-1" d="M123.52,111.68c-2,0-3.8.33-4.47.81.67.48,2.48.81,4.47.81s3.8-.33,4.47-.81c-.67-.48-2.48-.81-4.47-.81Z"/>
        <path id="path251" class="cls-1" d="M123.43,110.88h-.39v.82h.39v-.82ZM126.04,111.05v.82l.39.07v-.82l-.39-.07h0ZM120.76,111.09l-.39.09v.82l.39-.09v-.82ZM126.53,113l-.44.09v1.56l.44-.09v-1.56ZM122.15,113.22v1.56h.44v-1.54h-.44v-.02Z"/>
      </g>
      <g id="g255">
        <path id="path252" class="cls-10" d="M128.25,120.98c-.18.11-.41.19-.7.28-.87.35-2.39.56-4.02.56s-3.15-.22-4.02-.56c-.26-.09-.5-.18-.67-.26v.98s-.07.13-.07.19.02.15.07.22v.22h.24c.72.45,2.48.78,4.43.78s3.73-.3,4.43-.78h.3v-.3s.02-.09.02-.13,0-.09-.02-.11v-1.11.02h0Z"/>
        <path id="path253" class="cls-10" d="M118.93,114.18v1.35l1.7,6.06.39.07-2.11-7.49.02.02h0Z"/>
        <path id="path254" class="cls-10" d="M122.17,114.79l-1.5,6.8.37.07,1.52-6.84h-.37v-.02h-.02ZM126.41,114.59l-.39.07-1.85,7.17h.39l1.85-7.23h0Z"/>
        <path id="path255" class="cls-10" d="M122.17,114.79l1.89,7.04h.37l-1.87-7.01h-.39v-.02ZM126.52,114.57l-.37.07,1.85,6.34.24-.07v-.45l-1.72-5.88Z"/>
      </g>
      <path id="path256" class="cls-1" d="M128.25,121c-.11.07-.26.13-.41.19v1.52l.13-.07h.28v-1.65h0ZM120.61,121.58v1.56l.41.07v-1.56l-.41-.07ZM124.48,121.82h-.41v1.59h.41v-1.59Z"/>
    </g>
    <path id="path257" class="cls-11" d="M124.1,72.29h.82M124.08,71.83h.82M124.06,71.38h.82M124.03,70.92h.82M124.01,70.47h.82M123.99,70.01h.82M123.96,69.56h.82M123.94,69.1h.82M123.91,68.65h.82M123.89,68.19h.82M123.87,67.74h.82M123.84,67.28h.82M123.82,66.83h.82M123.8,66.37h.82M123.77,65.92h.82M123.75,65.46h.82M123.72,65.01h.82M123.7,64.55h.82M123.68,64.1h.82M123.65,63.65h.82M123.63,63.19h.82M123.61,62.74h.82M123.58,62.28h.82M123.56,61.83h.82"/>
    <g id="g259">
      <path id="path258" class="cls-8" d="M122.11,58.02c-7.75-1-10.21-.26-10.56-.13s-5.34,1.48-7.3,4.69c-1.96,3.21-.45,4.43-.45,4.43-.35-.74.93-3.47.93-3.47-.63,1.13.18,3.04.18,3.04-.26-.56.3-2.26.3-2.26l.45,1.35c0-.78.39-2.65.39-2.65.04,2.43.54,2.87.54,2.87-.45-.61.3-4.34.3-4.34-.45,2.22.26,2.69.26,2.69,0-2.61,1.28-3.95,1.28-3.95-1.39,1.52-.39,3.73-.39,3.73.13-2.56,2.13-4.61,2.13-4.61-1.87,1.96-.76,3.26-.76,3.26.04-1.65,2.93-4.04,2.93-4.04-1.24,1.17-1.19,2.61-1.19,2.61.5-.91,2.37-2.69,2.37-2.69-.45.61-.85,2.22-.85,2.22l.59-.35,1.61-1.91-.98,1.48.98-.44,1.11-1-.5.65.81-.22.81-.91-.5.65h1.15l.5-.48-.22.52.85.04.26-.48-.04.48h.39l.35-.7-.13.7s.93,0,1.11.22-5.71,1.78-5.71,1.78c0,0,1.28,0,1.39.35s-2.93.82-2.93.82l1.48.61-2.93.39,2.13.26-3.69.87h3.39l-3.56.7,2.28.3-2.98.44,2.84.26-3.08,1.26,1.65-.26c-3.26,3.04-2.08,5.21-2.08,5.21.22-.96,1.7-3.17,1.7-3.17-.35,2.82.45,3.82.45,3.82.09-.78,1.11-4.78,1.11-4.78.18.91.26,3.52.26,3.52.76-.61.45-3.65.45-3.65l1.19,1.13c-.59-.96-.45-3.17-.45-3.17.35.39.81,1.91.81,1.91l.39-2.91c0,.91.72,2.69.72,2.69l.26-3.04c.04.74.89,2.22.89,2.22v-3.3l.59,1.48.09-2.3.26,2.69.5-.56-.39-.04.18-.09.5-2.65.76,1.22.26-.78-.18-1.26c.26.09.67.87.67.87v-1.61l.72.3,1.07-1.52-.67,1.22,1.02-.61-1.19.91.76.3-1.7.18v.44l1.52.13c-2.13.35-2.19.96-2.19.96l2.04-.09c-1.61-.04-2.76,1.08-2.76,1.08l2.45-.09c-2.28.18-3.21,1.04-3.21,1.04l2.84.18c-1.44-.13-2.98,1.39-2.98,1.39l1.87.04c-1.74.18-2.13,1.13-2.13,1.13l1.52.04c-1.56.87-1.65,2.35-1.65,2.35l1.74-1.35c-1.82,1.56-1.19,2.87-1.19,2.87l1.11-1.26c-1.56,1.48-1.19,2.52-1.19,2.52l1.15-1.22c-.59,3.69.22,3.78.22,3.78l.26-3.73c.98.48,1.61,2.65,1.61,2.65l-.85-3.43c.93.65,1.19,2,1.19,2,.35-1.56-1.11-3.61-1.11-3.61l1.82,2.26-1.39-3.43,1.61,2.35c.04-2.22-1.24-3.61-1.24-3.61l1.96,1.65c-.09-.7-1.11-2.52-1.11-2.52.39.3,1.15,1.22,1.15,1.22-.26-1.08-1.39-2.35-1.39-2.35.54.13,1.44,1.22,1.44,1.22,0-.61-.63-2.87-.63-2.87l.67,1.39-.26-2.26.59.87-.13-1.56.39.09.26-1.87-.13,1.91-.45-.18.13,1.52,1.39-1.48-.81,2.65,1.39-1.26-1.11,2.3,1.61-1.82-1.19,3,1.28-1.08-1.19,2.17c.67,0,2-1.44,2-1.44-.67.39-1.65,2.78-1.65,2.78.85,0,1.44-1.48,1.44-1.48l-1.39,2.48c.85-.26,1.78-1.82,1.78-1.82.18.87-1.48,3.69-1.48,3.69.54,0,1.39-.7,1.39-.7,0,0,.13-.56-.45.48-.59,1.04-1.91,2.3-1.91,2.3,1.15.04,2.28-1.48,2.28-1.48.18.7-1.39,3.43-1.39,3.43,1.11-.09,2.04-3.13,2.04-3.13.35.39.59,3.91.67,3.47s.04-4.78.04-4.78c.22.3,1.13,2.28,1.13,2.28.07-.98-1-4.71-1-4.71l1.26,2.26-1.52-4.32,1.87,2.19-2.32-4.39,1.19,1.74c-.39-2.98-2.39-2.98-2.39-2.98,2.39-.33,2.58,2.58,2.58,2.58.52-.13.45-1.61.45-1.61l.13.72.39,2.45.26-2.13v2.65c0,.26.81-1.54.81-1.54.19.33.19,2.52.19,2.52l.67-1.74c.39,1.04.13,2.78.13,2.78.67,0,.87-1.54.87-1.54l.81,2.26-.07-1.67c-.07-1.67-2.39-4.97-3-5.3-.61-.33-2.93-1.04-2.93-1.04l-2.19-2,2.19,2c.26-.33-.26-1.93-.26-1.93l1.72,2.19c.39-.78-.39-2.06-.39-2.06.52.59,2.06,2.71,2.06,2.71.19-.78-.39-2.52-.39-2.52.45.45,2.13,3.1,2.13,3.1-.07-.26-1-2.91-1-2.91,1.13.98,2.26,4.08,2.26,4.08.33-1.04-.45-3.76-.45-3.76l1.93,4.45c.19-.91-.13-2.71-.13-2.71.61.52,1.59,2.84,1.59,2.84-.13-1.37-.52-3.04-.52-3.04l1.72,3.1-.33-2.06,1.07,2.26-.52-2,1.45,2-1.19-2.13,1.72,1.67s-2.52-3.04-3.06-3.5c-.52-.45-5.25-2.13-6.32-2.65s-5.71-.26-5.71-.26l1.39-.07-.26-.59.26.52h.93l-.52-.52.39.59h1.59l-1.07-.91c.52.26,1.07.85,1.07.85l.81.07-.52-1.11.81,1.24,1.33.26c-.19-.59-1-1.48-1-1.48.52.52,1.19,1.54,1.19,1.54l1.13.39c0-.59-.93-1.87-.93-1.87.81.65,1.45,2,1.45,2,.07-.52-.39-2.06-.39-2.06.52.33,1.39,2.32,1.39,2.32.07-.59-.07-2.32-.19-2.26.39.45,1.26,2.78,1.26,2.78v-2.26c.26,0,1,2.45,1,2.45.39-.91-.07-2.78-.07-2.78.33.65,1.07,2.71,1.07,2.71l.13-.91.19,1.67.19-1.41.61,1.54c-.07-.91-.81-3.36-.81-3.36.52.52,1.93,3.56,1.93,3.56v-1.11l.39,1.74c.61-1.74-.67-3.69-.67-3.69.93,1.3,1.26,2.98,1.26,2.98l.39-.91c.39.65.39,2.32.39,2.32.52-1.8-.52-3.43-.52-3.43,1.13.85,1.8,4.25,1.8,4.25l.19-2.65c.33.65.96,2.65.96,2.65.15-1.13-.33-3.02-.98-3.84s-1.15-1.67-5.15-2.52c-3.99-.82-13.68-.11-13.68-.11l1.54-.33c1-.76,3.3-.11,3.3-.11h.59l-.13-.85c-.02-.24,1.08.76,1.08.76h.39v-1.08l1.63,1.22.61.09-1.07-1.39c.61.56,2.43,1.26,2.43,1.26-.13-.5-1.48-1.56-1.48-1.56.45,0,2.35,1.65,2.35,1.65l-1.13-1.26,2.69,1.24c-.18-.33-1.08-1.24-1.08-1.24,1.07.93,3.24,1.5,3.24,1.5l-2.58-2,3.21,2.45c-.52-1.54-2.08-2.89-2.08-2.89.78.11,3.8,3.02,3.8,3.02,0-1.15-1.13-2.52-1.13-2.52.78.26,2.78,2.93,2.78,2.93.09-.72-1.07-2.56-1.07-2.56.61.3,2.24,2.61,2.24,2.61.37-1.33-1.17-2.52-1.17-2.52l3.1,1.65c-1.63-2.37-4.88-3.15-5.28-3.3s-3.26-.15-5.76-.07c-2.5.09-5.67,1.5-5.82,1.52s-2.69.78-2.69.78l-.7-.26.87.19,1.19-.33-1.19-.74,1.56.59.81-.28-1.17-.67,1.26.56,1.87-.67-2.13-.78h3.36l-2.54-.85,4.13.67c-.37-.44-1.52-.82-1.52-.82.85,0,2.76.44,2.76.44-.37-.41-2-1.13-2-1.13.89.18,3.3.87,3.3.87l-1.76-1.19,1.72.65c-.3-.52-1.26-.96-1.26-.96.39,0,3.26,1.37,3.26,1.37-.63-1-2-2.39-2-2.39l1.76,1.08-1.02-1.13,2.63,1.19c-.89-1.22-2.91-1.93-3.5-2.02s-4.82.37-8.14,2.69-3.71,4.43-3.71,4.43c0,0-3.41-7.19-9.38-7.62,0,0,.93.87,2.76,1.26,0,0-2,.44-2.5,1.13,0,0,2.24-.18,3.65.22,0,0-2.37.48-2.71,1.08,0,0,2.54-.26,3.87-.04,0,0-2.28.3-2.37.82,0,0,3.52,0,3.65.65,0,0-2.41-.09-3.04.3,0,0,3.17.44,3.78.87l-1.96.3s2.54.52,2.84,1.22c0,0-5.62-2.39-10.21-2.87-4.58-.48-5.97.7-6.78,1.35s-2.63,2.35-2.32,3.73c0,0,.98-1.87,3.34-3.34l-2.13,2.52,2.41-1.91s-1.48,1.96-1.48,2.61c0,0,2.28-3.61,3.26-4.25,0,0-1.65,2.04-1.61,2.82,0,0,3.17-3.04,3.47-3,0,0-2.41,2.13-2.37,3.52,0,0,2.76-2.87,3.61-3.13,0,0-2.08,1.17-1.7,2.17l2.28-2.04-1.39,2.17.67-.22s.98-1.82,2.37-1.78l-1.82,1.7.93-.09s1.07-1.3,2.37-1.74c0,0-1.87,1.48-1.96,1.74l.59.04s1.11-1.13,1.96-1.35l-.81,1.26h.39l1.07-1-.76.96.98.09.72-.61-.59.7h.72l.45-.35-.04.44,1.15.04.3-.61-.04.52,2.15.35.09-.04h0Z"/>
      <path id="path259" class="cls-8" d="M117.11,58.06l-.81.91h-.09v.13s-3.13,1.13-5.43,3.08c-2.3,1.96-3.73,4.13-4.02,5.17-.26,1.04-.3,3.95-.3,3.95,0,0,.45-2.43.72-2.78,0,0,0,1.52.22,1.87l.26-3.04s.09,2.17.59,2.39c0,0-.13-2.74.22-3.61,0,0-.13,1.48.13,1.87,0,0,.39-3.43,1.35-4.34,0,0-1.11,1.78-.39,4.3l.22-.96-.3.04.33-.13.3-1.35.45,1.04.18-.07.11-.91-1.13-.11,1.37-.19v-.45l-.65-.09.67-.13v-.56h-.5l.52-.13v-.48l.07.48.74-.18.11-.48.11.41h.07l.13-.76h-.15l.15-.04.11-.67.09.65.35-.04.19-.96.22.87s.59-1.87,1.02-2.08l.04,1.13.22-.04.96-1.61v.52l.37-.11.39-.91.26.7.45-.52.22.37,3.71-1.24c-.18-.22-1.11-.22-1.11-.22l.13-.7-.35.7h-.39l.04-.48-.26.48-.85-.04.22-.52-.5.48h-1.15l.5-.65-.11.04h0ZM115.44,60.8v.72l.28-.7c-.09,0-.19,0-.28-.02h0ZM112.49,63l.09.61h.11l.11-.56-.3-.04h0ZM111.16,64.08l.07.52.5-.09.09-.44h-.65,0ZM111.27,64.89l.04.37.26-.04.07-.3-.37-.04v.02h0ZM110.86,65.63l.15.59v-.56h-.15s0-.02,0-.02ZM111.35,65.67l.04.33.07-.3h-.11v-.02ZM110.64,66.84h-.02l.02.07v-.07Z"/>
    </g>
    <path id="path260" class="cls-14" d="M124.02,51l-.39,5.24.65,1.17s.07-.39.41-1.04l-.18-5.17c-.18-.09-.35-.15-.52-.19h.02ZM124.76,57.78l-.19.04.19.04v-.09Z"/>
    <path id="path261" class="cls-1" d="M107.06,105.21s1.85-1.04,2.91-.04l-.35.74-1.8.13-.76-.82h0Z"/>
    <g id="g263">
      <path id="path262" class="cls-12" d="M108.4,102.97l-.04,2.8h.37l.04-2.8h-.37Z"/>
      <path id="path263" class="cls-12" d="M107.12,106.12s.37.15.3.7-.22,2.5,1.19,2.5,1.24-1.89,1.24-2.19.11-.87.11-.87v-1.08s-1.41,1.02-2.84-.02v1-.02Z"/>
    </g>
  </g>
  <g id="g265">
    <path id="path264" class="cls-16" d="M94.42,84.88s-.07.43-.07.86c0,.22.01.43.07.61.03.09.07.17.12.22.01,0,.03.03.04.04.09,0,.15,0,.21-.03v-.07s-.07,0-.09-.04c-.03-.03-.07-.09-.09-.15-.06-.14-.07-.35-.07-.55,0-.42.07-.85.07-.85l-.19-.03h0Z"/>
    <path id="path265" class="cls-1" d="M95.44,84.52c-.82.27-1.42.18-1.81.03v.06s.11.04.17.19c.76.36,1.36.07,1.65-.14v-.14h-.01,0Z"/>
  </g>
  <path id="path266" class="cls-22" d="M104,129.92l-.33-.07-.48,2.41,1.61.3.07-.28-1.26-.24.41-2.13h-.02,0ZM105.32,131.05l.26.04.15-.87-.26-.04-.15.87ZM107.78,130.51l-.22,1.54c0,.13-.04.24-.11.33-.04.09-.11.15-.19.19-.15.09-.3.11-.45.09-.07,0-.15-.02-.22-.07-.07-.02-.13-.09-.19-.13-.04-.07-.09-.13-.11-.22-.02-.09-.02-.19,0-.33l.22-1.54-.35-.04-.24,1.63c-.04.24,0,.45.15.63.13.19.37.33.7.37.35.04.61,0,.81-.18.19-.15.3-.35.33-.61l.22-1.59-.35-.04.02-.04h-.01ZM110.04,132.74h0l-1.04-2.11-.41-.04-.26,2.45.33.04.22-1.98h0l1.07,2.11.39.04.26-2.45-.33-.04-.22,1.98h0ZM111.47,130.88h-.35l-.22,2.43h.35l.22-2.43ZM113.9,132.29c-.02.28-.11.52-.28.7-.18.18-.39.26-.67.24-.28,0-.48-.13-.63-.33s-.19-.44-.18-.74c0-.3.11-.52.28-.7.18-.18.39-.26.67-.24.28,0,.48.13.63.33.13.19.19.44.18.74h0ZM114.25,132.31c0-.13,0-.28-.02-.44s-.09-.3-.18-.44c-.09-.13-.19-.26-.35-.35s-.35-.15-.59-.18h-.33c-.11,0-.19.04-.28.07-.18.07-.3.18-.41.3-.11.13-.18.26-.24.41-.04.15-.09.28-.09.44,0,.13,0,.28.04.44.02.15.09.3.18.44.09.13.19.26.35.35s.35.15.59.18h.33c.11,0,.19-.04.28-.07.18-.07.3-.18.39-.3.11-.13.18-.26.24-.41.04-.15.09-.28.09-.41h0v-.02ZM116.27,133.18h0l-1.15-2.06h-.41l-.13,2.43h.33l.11-1.98h0l1.17,2.06h.39l.13-2.43h-.33l-.11,1.98h0ZM118.5,132.61l1.24.04v-.3l-1.24-.04v-.76l1.44.04v-.3l-1.74-.07-.09,2.45h.35l.04-1.11v.04h0ZM121.41,133.09l.24.72h.37l-.87-2.48h-.39l-1,2.43h.35l.28-.72h1.02v.04h0ZM120.5,132.79l.44-1.08h0l.35,1.08h-.78ZM122.76,131.38h-.35v2.45h.35v-2.45ZM123,131.68h.85l.02,2.15h.35l-.02-2.17h.87v-.3h-2.06v.33h0ZM126.67,131.31h-.35l.09,2.48,1.63-.04v-.3l-1.3.04-.07-2.17h0ZM129.75,132.94l.28.72h.37l-1.02-2.43h-.39l-.85,2.52h.35l.24-.74,1.02-.04v-.02h0ZM128.82,132.68l.35-1.11h0l.41,1.07-.78.04h.02ZM131.99,132.42l1.24-.09v-.3l-1.26.09-.04-.76,1.41-.09v-.3l-1.76.11.15,2.45h.35l-.07-1.13-.02.02h0ZM135.7,132.03c.02.28-.04.54-.18.74s-.35.3-.63.33c-.28,0-.5-.07-.67-.24s-.26-.41-.3-.7c-.02-.3.02-.54.18-.74.13-.19.35-.3.63-.33.28,0,.5.07.67.24s.26.41.3.7ZM136.05,132c0-.13-.04-.28-.09-.44-.07-.15-.13-.28-.24-.39-.11-.13-.24-.22-.41-.28s-.37-.09-.61-.07c-.11,0-.22.02-.33.07-.09.02-.18.07-.26.11-.15.09-.26.22-.35.35s-.13.28-.18.44c-.02.15-.04.3-.02.44,0,.13.04.26.11.41.04.15.13.28.24.41.11.13.24.22.41.28s.37.11.61.09c.11,0,.22-.02.33-.07.09-.02.18-.07.26-.11.15-.09.26-.22.35-.35s.13-.28.18-.44c.02-.15.02-.28,0-.44h0v-.02h0ZM136.83,132.09l.82-.09h.24c.07,0,.11.04.15.09s.07.09.07.13.02.11.02.15c0,.07,0,.15.04.28,0,.07.02.13.04.18,0,.07.02.11.04.15l.41-.04v-.07s-.09-.04-.11-.09c0-.04-.04-.09-.04-.15l-.07-.44s-.02-.15-.04-.22c-.02-.04-.04-.09-.09-.11-.02-.02-.07-.07-.11-.07s-.09-.02-.11-.04c.04-.02.09-.07.11-.11.04-.04.07-.07.11-.13.02-.04.04-.11.07-.18v-.24c-.04-.26-.13-.41-.3-.5-.18-.07-.37-.11-.59-.07l-1.17.13.28,2.45.35-.04-.11-1.04-.02.04h0ZM136.7,130.98l.85-.09s.19,0,.3.02c.04,0,.09.07.13.11s.07.13.07.22v.22c-.02.07-.07.11-.11.15s-.11.07-.15.07c-.07,0-.13.04-.19.04l-.78.09-.09-.82h-.03ZM140.93,130.91c-.04-.22-.18-.39-.37-.52-.19-.13-.45-.18-.78-.15-.37.07-.63.22-.81.48-.18.26-.24.59-.18.96.07.45.24.78.5.96.26.18.52.24.82.19.04,0,.13-.02.24-.07.11-.02.22-.09.33-.15.11-.09.19-.19.28-.35s.13-.33.13-.56l-.33.04c0,.15-.02.26-.07.35s-.09.18-.15.24-.13.09-.19.13c-.07.02-.13.04-.19.07-.3.04-.54-.02-.7-.19s-.24-.41-.28-.7c-.04-.33,0-.56.13-.76.13-.18.3-.28.54-.33h.19c.07,0,.15,0,.22.04.07.02.13.07.19.13.07.07.11.15.15.24l.33-.04h-.02,0ZM143.43,131.91l-1.5.28-.15-.81,1.37-.26-.07-.28-1.37.26-.15-.74,1.48-.28-.07-.28-1.8.35.48,2.43,1.85-.35-.07-.28v-.04h0Z"/>
  <g>
    <path class="cls-22" d="M80.03,152.69c-.43.15-1.27.41-2.28.41-1.12,0-2.05-.28-2.77-.98-.64-.62-1.03-1.61-1.03-2.76,0-2.21,1.53-3.83,4.02-3.83.86,0,1.53.18,1.85.34l-.23.78c-.4-.18-.89-.32-1.64-.32-1.81,0-2.98,1.12-2.98,2.98s1.13,2.99,2.86,2.99c.63,0,1.06-.09,1.27-.2v-2.21h-1.51v-.77h2.44v3.57h0Z"/>
    <path class="cls-22" d="M86.34,150.31c0,1.97-1.36,2.83-2.65,2.83-1.44,0-2.55-1.06-2.55-2.74,0-1.78,1.17-2.83,2.64-2.83s2.56,1.11,2.56,2.74h0ZM82.11,150.37c0,1.17.67,2.05,1.62,2.05s1.62-.87,1.62-2.07c0-.9-.45-2.05-1.6-2.05s-1.64,1.06-1.64,2.07h0Z"/>
    <path class="cls-22" d="M92.01,151.57c0,.55,0,1.03.04,1.45h-.86l-.06-.87h-.02c-.25.43-.81.99-1.76.99-.83,0-1.84-.46-1.84-2.33v-3.11h.97v2.95c0,1.01.31,1.7,1.19,1.7.65,0,1.1-.45,1.27-.88.06-.14.09-.32.09-.49v-3.27h.97v3.87h0Z"/>
    <path class="cls-22" d="M93.99,147.69l1.05,2.99c.18.48.32.92.43,1.36h.03c.12-.44.27-.88.45-1.36l1.03-2.99h1.01l-2.09,5.33h-.92l-2.02-5.33h1.03,0Z"/>
    <path class="cls-22" d="M99.34,150.53c.02,1.31.86,1.85,1.82,1.85.69,0,1.11-.12,1.47-.27l.17.69c-.34.16-.92.33-1.77.33-1.64,0-2.62-1.08-2.62-2.69s.95-2.87,2.5-2.87c1.74,0,2.2,1.53,2.2,2.51,0,.2-.02.35-.03.45h-3.74,0ZM102.18,149.84c0-.62-.25-1.57-1.34-1.57-.98,0-1.41.9-1.49,1.57h2.83Z"/>
    <path class="cls-22" d="M104.32,149.35c0-.63,0-1.17-.04-1.66h.85l.03,1.05h.04c.24-.72.82-1.17,1.47-1.17.11,0,.19,0,.27.03v.91c-.1-.02-.2-.03-.33-.03-.68,0-1.17.52-1.3,1.24-.02.13-.04.28-.04.45v2.84h-.96v-3.66h0Z"/>
    <path class="cls-22" d="M107.96,149.13c0-.55,0-1-.04-1.44h.86l.06.88h.02c.27-.51.88-1,1.76-1,.74,0,1.88.44,1.88,2.26v3.18h-.97v-3.07c0-.86-.32-1.57-1.23-1.57-.64,0-1.13.45-1.3.99-.04.12-.07.28-.07.45v3.2h-.97v-3.89h0Z"/>
    <path class="cls-22" d="M114.6,150.53c.02,1.31.86,1.85,1.82,1.85.69,0,1.11-.12,1.47-.27l.17.69c-.34.16-.92.33-1.77.33-1.64,0-2.62-1.08-2.62-2.69s.95-2.87,2.5-2.87c1.74,0,2.2,1.53,2.2,2.51,0,.2-.02.35-.03.45h-3.74,0ZM117.44,149.84c0-.62-.25-1.57-1.34-1.57-.98,0-1.41.9-1.49,1.57h2.83Z"/>
    <path class="cls-22" d="M119.58,149.13c0-.55,0-1-.04-1.44h.85l.04.86h.03c.3-.51.79-.98,1.67-.98.72,0,1.27.44,1.51,1.07h.02c.17-.3.37-.53.59-.69.32-.24.67-.37,1.17-.37.71,0,1.75.46,1.75,2.31v3.14h-.95v-3.01c0-1.02-.37-1.64-1.16-1.64-.55,0-.98.41-1.15.88-.04.13-.08.31-.08.48v3.29h-.95v-3.19c0-.85-.37-1.46-1.11-1.46-.61,0-1.05.48-1.2.97-.06.14-.08.31-.08.47v3.21h-.95v-3.89h0Z"/>
    <path class="cls-22" d="M129.29,150.53c.02,1.31.86,1.85,1.82,1.85.69,0,1.11-.12,1.47-.27l.17.69c-.34.16-.92.33-1.77.33-1.64,0-2.62-1.08-2.62-2.69s.95-2.87,2.5-2.87c1.74,0,2.2,1.53,2.2,2.51,0,.2-.02.35-.03.45h-3.74,0ZM132.13,149.84c0-.62-.25-1.57-1.34-1.57-.98,0-1.41.9-1.49,1.57h2.83Z"/>
    <path class="cls-22" d="M134.27,149.13c0-.55,0-1-.04-1.44h.86l.06.88h.02c.27-.51.88-1,1.76-1,.74,0,1.88.44,1.88,2.26v3.18h-.97v-3.07c0-.86-.32-1.57-1.23-1.57-.64,0-1.13.45-1.3.99-.04.12-.07.28-.07.45v3.2h-.97v-3.89h0Z"/>
    <path class="cls-22" d="M141.5,146.16v1.53h1.39v.74h-1.39v2.87c0,.66.18,1.03.72,1.03.25,0,.44-.03.56-.07l.04.72c-.19.08-.48.13-.86.13-.45,0-.81-.14-1.05-.41-.27-.28-.37-.76-.37-1.39v-2.9h-.82v-.74h.82v-1.27l.95-.25h0Z"/>
    <path class="cls-22" d="M150.9,145.2v6.44c0,.47,0,1.01.04,1.37h-.87l-.04-.92h-.02c-.3.59-.95,1.05-1.81,1.05-1.29,0-2.28-1.09-2.28-2.71,0-1.77,1.09-2.86,2.39-2.86.81,0,1.36.38,1.61.81h.02v-3.18h.97ZM149.93,149.86c0-.12,0-.28-.04-.41-.14-.62-.67-1.12-1.4-1.12-1,0-1.6.88-1.6,2.06,0,1.08.53,1.97,1.57,1.97.65,0,1.24-.43,1.42-1.16.03-.13.04-.27.04-.42v-.92h0Z"/>
    <path class="cls-22" d="M153.05,150.53c.02,1.31.86,1.85,1.82,1.85.69,0,1.11-.12,1.47-.27l.17.69c-.34.16-.92.33-1.77.33-1.64,0-2.62-1.08-2.62-2.69s.95-2.87,2.5-2.87c1.74,0,2.2,1.53,2.2,2.51,0,.2-.02.35-.03.45h-3.74,0ZM155.89,149.84c0-.62-.25-1.57-1.34-1.57-.98,0-1.41.9-1.49,1.57h2.83Z"/>
    <path class="cls-22" d="M160.35,145.2h.97v7.81h-.97v-7.81Z"/>
    <path class="cls-22" d="M165.9,153.02l-.08-.67h-.03c-.3.42-.87.79-1.63.79-1.08,0-1.63-.76-1.63-1.53,0-1.29,1.15-1.99,3.2-1.98v-.11c0-.44-.12-1.23-1.21-1.23-.5,0-1.01.16-1.39.4l-.22-.64c.44-.28,1.08-.47,1.75-.47,1.63,0,2.02,1.11,2.02,2.18v1.99c0,.46.02.91.09,1.27h-.88,0ZM165.76,150.3c-1.06-.02-2.26.17-2.26,1.2,0,.63.42.92.91.92.69,0,1.13-.44,1.29-.89.03-.1.06-.21.06-.31v-.92h0Z"/>
    <path class="cls-22" d="M75.87,163.08v3.14h-1.28v-7.86h2.22c1.01,0,1.76.19,2.25.57.49.38.73.95.73,1.72,0,.98-.51,1.67-1.53,2.09l2.22,3.48h-1.46l-1.88-3.14h-1.27,0ZM75.87,162.02h.89c.6,0,1.03-.11,1.3-.33s.4-.55.4-.99-.15-.76-.44-.96-.72-.29-1.31-.29h-.85v2.57h0Z"/>
    <path class="cls-22" d="M84.08,166.33c-.92,0-1.65-.27-2.17-.81s-.78-1.28-.78-2.23.24-1.73.72-2.29,1.15-.83,1.99-.83c.79,0,1.4.24,1.86.72.45.47.68,1.13.68,1.97v.68h-3.96c.02.58.18,1.02.47,1.33.29.31.71.46,1.24.46.35,0,.68-.03.98-.1.3-.07.63-.18.98-.33v1.03c-.31.15-.62.25-.93.31-.32.06-.67.09-1.08.09h0ZM83.85,161.13c-.4,0-.72.13-.97.38-.24.26-.38.63-.43,1.11h2.7c0-.49-.12-.86-.36-1.11-.23-.25-.54-.38-.95-.38h0ZM83.05,159.55v-.13c.2-.25.42-.53.63-.84s.39-.57.51-.79h1.47v.11c-.18.22-.46.5-.83.85s-.68.61-.94.81h-.84Z"/>
    <path class="cls-22" d="M90.84,166.33c-.75,0-1.34-.27-1.75-.81h-.08c.05.5.08.81.08.91v2.44h-1.26v-8.59h1.02c.03.11.09.37.18.8h.07c.39-.6.99-.9,1.77-.9.74,0,1.32.27,1.73.81.41.54.62,1.29.62,2.26s-.21,1.73-.63,2.27-1,.81-1.74.81ZM90.53,161.2c-.5,0-.87.15-1.1.44s-.35.76-.35,1.41v.19c0,.72.11,1.25.35,1.57s.6.49,1.12.49c.44,0,.77-.18,1.01-.54s.36-.87.36-1.53-.12-1.17-.35-1.51c-.24-.34-.58-.51-1.03-.51h0Z"/>
    <path class="cls-22" d="M98.87,166.22l-.18-.78h-.07c-.18.27-.43.49-.75.65s-.69.24-1.11.24c-.72,0-1.26-.18-1.61-.54-.36-.36-.53-.9-.53-1.63v-3.89h1.27v3.66c0,.45.09.8.28,1.02s.48.34.88.34c.53,0,.92-.16,1.17-.47s.37-.85.37-1.59v-2.96h1.27v5.94h-1Z"/>
    <path class="cls-22" d="M104.7,160.17c.74,0,1.32.27,1.73.81.41.54.62,1.29.62,2.26s-.21,1.73-.63,2.27c-.42.54-1,.81-1.75.81s-1.34-.27-1.75-.81h-.09l-.23.71h-.95v-8.36h1.26v1.99c0,.15,0,.36-.02.65s-.02.47-.03.55h.05c.4-.59.99-.89,1.77-.89h.01ZM104.38,161.2c-.51,0-.88.15-1.1.45s-.34.8-.35,1.5v.09c0,.72.11,1.25.35,1.57s.6.49,1.12.49c.45,0,.79-.18,1.02-.53s.35-.87.35-1.54c0-1.35-.46-2.02-1.39-2.02h0Z"/>
    <path class="cls-22" d="M109.79,166.22h-1.26v-8.36h1.26v8.36Z"/>
    <path class="cls-22" d="M111.52,158.71c0-.23.06-.4.18-.52s.3-.18.53-.18.39.06.52.18.18.29.18.52-.06.38-.18.51-.3.18-.52.18-.41-.06-.53-.18-.18-.29-.18-.51ZM112.85,166.22h-1.26v-5.94h1.26v5.94Z"/>
    <path class="cls-22" d="M116.65,166.33c-.73,0-1.31-.27-1.72-.81s-.63-1.29-.63-2.26.21-1.72.63-2.27,1-.82,1.75-.82c.37,0,.71.07,1,.21s.56.36.79.68h.04l.14-.78h1.05v8.59h-1.27v-2.52c0-.16,0-.32.02-.5s.03-.31.04-.4h-.07c-.37.59-.97.89-1.78.89h0ZM117.01,165.32c.53,0,.91-.15,1.14-.46s.35-.77.35-1.39v-.2c0-.73-.12-1.27-.36-1.58-.24-.32-.62-.48-1.15-.48-.45,0-.8.18-1.03.54-.24.36-.36.87-.36,1.54,0,1.36.47,2.04,1.41,2.04h0Z"/>
    <path class="cls-22" d="M125.71,166.22l-.18-.78h-.07c-.18.27-.43.49-.75.65-.32.16-.69.24-1.11.24-.72,0-1.26-.18-1.61-.54-.36-.36-.53-.9-.53-1.63v-3.89h1.27v3.66c0,.45.09.8.28,1.02s.48.34.88.34c.53,0,.92-.16,1.17-.47s.37-.85.37-1.59v-2.96h1.27v5.94h-1Z"/>
    <path class="cls-22" d="M131.09,166.33c-.92,0-1.65-.27-2.17-.81s-.78-1.28-.78-2.23.24-1.73.72-2.29,1.15-.83,1.99-.83c.79,0,1.4.24,1.86.72.45.47.68,1.13.68,1.97v.68h-3.96c.02.58.18,1.02.47,1.33.29.31.71.46,1.24.46.35,0,.68-.03.98-.1.3-.07.63-.18.98-.33v1.03c-.31.15-.62.25-.93.31-.32.06-.67.09-1.08.09h0ZM130.86,161.13c-.4,0-.72.13-.97.38-.24.26-.38.63-.43,1.11h2.7c0-.49-.12-.86-.36-1.11-.23-.25-.54-.38-.95-.38h0Z"/>
    <path class="cls-22" d="M139.7,166.33c-.74,0-1.32-.27-1.73-.81-.42-.54-.63-1.29-.63-2.26s.21-1.73.63-2.27c.42-.54,1-.81,1.75-.81s1.37.29,1.78.87h.07c-.06-.43-.09-.76-.09-1.01v-2.17h1.27v8.36h-.99l-.22-.78h-.06c-.4.59-1,.89-1.78.89h0ZM140.04,165.31c.52,0,.9-.15,1.13-.44s.36-.77.36-1.42v-.18c0-.75-.12-1.28-.36-1.6-.24-.32-.63-.47-1.15-.47-.45,0-.79.18-1.03.54s-.36.87-.36,1.54.12,1.16.35,1.51c.23.35.58.52,1.05.52h0Z"/>
    <path class="cls-22" d="M145.56,158.36l.08.12c-.19.75-.51,1.61-.95,2.57h-.91c.25-1.03.43-1.93.54-2.69h1.25Z"/>
    <path class="cls-22" d="M153,166.22h-1.29v-3.54h-3.62v3.54h-1.28v-7.86h1.28v3.21h3.62v-3.21h1.29v7.86Z"/>
    <path class="cls-22" d="M158.65,166.22l-.25-.83h-.04c-.28.36-.57.61-.87.74-.29.13-.66.19-1.12.19-.58,0-1.04-.16-1.37-.47-.33-.32-.49-.76-.49-1.34,0-.61.23-1.08.68-1.39s1.15-.48,2.08-.51l1.03-.03v-.32c0-.38-.09-.66-.27-.85s-.45-.28-.82-.28c-.3,0-.6.04-.88.13-.28.09-.55.19-.81.32l-.41-.9c.32-.17.68-.3,1.06-.38.38-.09.74-.13,1.08-.13.75,0,1.33.17,1.71.49.38.33.58.85.58,1.55v4h-.9,0ZM156.77,165.36c.46,0,.82-.13,1.1-.38s.42-.62.42-1.08v-.52l-.76.03c-.6.02-1.03.12-1.3.3s-.41.45-.41.81c0,.27.08.47.24.62s.39.22.71.22h0Z"/>
    <path class="cls-22" d="M161.24,158.71c0-.23.06-.4.18-.52s.3-.18.53-.18.39.06.52.18.18.29.18.52-.06.38-.18.51-.3.18-.52.18-.41-.06-.53-.18-.18-.29-.18-.51ZM162.58,166.22h-1.26v-5.94h1.26v5.94Z"/>
    <path class="cls-22" d="M166.6,165.31c.31,0,.62-.05.92-.15v.95c-.14.06-.32.11-.54.15s-.45.06-.69.06c-1.19,0-1.8-.63-1.8-1.89v-3.2h-.81v-.56l.87-.46.43-1.26h.78v1.32h1.69v.96h-1.69v3.18c0,.3.08.53.23.67.15.15.35.22.6.22h0Z"/>
    <path class="cls-22" d="M168.64,158.71c0-.23.06-.4.18-.52s.3-.18.53-.18.39.06.52.18.18.29.18.52-.06.38-.18.51-.3.18-.52.18-.41-.06-.53-.18-.18-.29-.18-.51ZM169.97,166.22h-1.26v-5.94h1.26v5.94Z"/>
  </g>
  <g>
    <path class="cls-22" d="M56.17,235.63c-.1-2.09-.22-4.6-.2-6.77h-.07c-.52,1.99-1.19,4.2-1.86,6.17l-2.39,7.15h-2.34l-2.19-7.02c-.63-2.02-1.22-4.25-1.65-6.3h-.06c-.06,2.11-.17,4.66-.3,6.86l-.37,6.66h-2.88l1.19-16.83h3.91l2.15,6.78c.61,2.04,1.15,3.97,1.55,5.86h.07c.43-1.86.98-3.82,1.62-5.87l2.25-6.77h3.88l1.04,16.83h-3l-.35-6.76h0Z"/>
    <path class="cls-22" d="M65.97,226.89c0,.92-.68,1.62-1.77,1.62-1.01,0-1.7-.7-1.7-1.62,0-.94.71-1.63,1.73-1.63s1.73.68,1.73,1.63h0ZM62.67,242.38v-12.16h3.14v12.16h-3.14Z"/>
    <path class="cls-22" d="M69.07,233.78c0-1.39-.05-2.5-.1-3.56h2.74l.15,1.71h.07c.58-.95,1.89-1.96,3.8-1.96,2.22,0,4.21,1.43,4.21,4.96v7.44h-3.14v-7.11c0-1.59-.56-2.87-2.18-2.87-1.12,0-1.94.76-2.26,1.71-.09.26-.15.63-.15,1.01v7.26h-3.14v-8.6h0Z"/>
    <path class="cls-22" d="M86.43,226.89c0,.92-.68,1.62-1.77,1.62-1.01,0-1.7-.7-1.7-1.62,0-.94.71-1.63,1.73-1.63s1.73.68,1.73,1.63h0ZM83.13,242.38v-12.16h3.14v12.16h-3.14Z"/>
    <path class="cls-22" d="M89.36,239.65c.65.38,1.9.81,2.98.81,1.31,0,1.95-.55,1.95-1.37s-.48-1.24-1.96-1.83c-2.35-.89-3.29-2.15-3.28-3.53,0-2.12,1.81-3.75,4.62-3.75,1.31,0,2.43.32,3.14.68l-.63,2.1c-.53-.29-1.43-.64-2.44-.64-1.11,0-1.71.56-1.71,1.28s.53,1.11,2.05,1.73c2.16.84,3.19,1.98,3.2,3.7,0,2.29-1.84,3.79-4.96,3.79-1.4,0-2.75-.33-3.58-.8l.63-2.16h0Z"/>
    <path class="cls-22" d="M103.39,226.81v3.41h2.93v2.18h-2.93v5.64c0,1.49.48,2.13,1.57,2.13.49,0,.86-.05,1.15-.11l.06,2.26c-.47.16-1.26.28-2.22.28-1.12,0-2.06-.33-2.65-.93-.68-.67-1-1.72-1-3.37v-5.9h-1.76v-2.18h1.76v-2.7l3.09-.71h0Z"/>
    <path class="cls-22" d="M110.67,237.12c.07,2.36,1.74,3.25,3.66,3.25,1.33,0,2.33-.21,3.19-.53l.46,2.06c-1.02.42-2.47.71-4.13.71-3.94,0-6.19-2.39-6.19-6.13s2.13-6.51,5.87-6.51,5.13,2.97,5.13,5.81c0,.61-.04,1.05-.1,1.33h-7.87,0ZM112.81,225.05l2.19,3.62h-2.13l-3.08-3.62h3.03ZM115.7,235.05c.01-1.37-.55-3.01-2.39-3.01s-2.53,1.71-2.65,3.01h5.03Z"/>
    <path class="cls-22" d="M121.09,233.99c0-1.48-.04-2.69-.1-3.76h2.73l.13,2.17h.09c.59-1.57,1.97-2.42,3.26-2.42.3,0,.48,0,.72.06v2.83c-.25-.05-.5-.07-.85-.07-1.38,0-2.44.88-2.73,2.25-.06.28-.09.63-.09,1v6.34h-3.14v-8.39h0Z"/>
    <path class="cls-22" d="M131.93,237.12c.07,2.36,1.74,3.25,3.66,3.25,1.33,0,2.33-.21,3.19-.53l.46,2.06c-1.02.42-2.47.71-4.13.71-3.94,0-6.19-2.39-6.19-6.13s2.13-6.51,5.87-6.51,5.13,2.97,5.13,5.81c0,.61-.04,1.05-.1,1.33h-7.87,0ZM136.96,235.05c.01-1.37-.55-3.01-2.39-3.01s-2.53,1.71-2.65,3.01h5.03Z"/>
    <path class="cls-22" d="M53.11,254.75v14.22c0,1.17.05,2.51.1,3.37h-2.77l-.15-1.78h-.06c-.67,1.21-2.06,2.03-3.74,2.03-2.91,0-5.04-2.5-5.04-6.22-.01-4.13,2.47-6.44,5.27-6.44,1.56,0,2.69.62,3.21,1.5h.05v-6.69h3.13ZM49.98,265.13c0-.24,0-.54-.06-.78-.24-1.12-1.15-2.06-2.43-2.06-1.9,0-2.88,1.8-2.88,4.03s1.03,3.91,2.83,3.91c1.09,0,2.1-.68,2.44-1.98.07-.25.1-.55.1-.86v-2.24h0Z"/>
    <path class="cls-22" d="M67.09,268.74c0,1.41.05,2.61.1,3.61h-2.74l-.16-1.67h-.07c-.53.81-1.73,1.92-3.76,1.92-2.36,0-4.14-1.44-4.14-5.16v-7.24h3.14v6.79c0,1.93.57,3.2,2.14,3.2,1.18,0,1.9-.81,2.18-1.51.1-.27.17-.61.17-.98v-7.5h3.14v8.55h0Z"/>
    <path class="cls-22" d="M87.05,271.92c-.7.33-2.17.66-4.04.66-5.2,0-8.32-3.29-8.32-8.43,0-5.81,3.96-8.85,8.75-8.85,1.86,0,3.16.35,3.73.65l-.65,2.39c-.71-.31-1.68-.57-2.95-.57-3.13,0-5.57,2-5.57,6.21,0,3.96,2.15,6.09,5.55,6.09,1.12,0,2.29-.22,3.03-.52l.48,2.37h0Z"/>
    <path class="cls-22" d="M100.28,266.18c0,4.6-3.14,6.42-6.04,6.42-3.37,0-5.91-2.3-5.91-6.26s2.64-6.4,6.1-6.4,5.86,2.46,5.86,6.24h0ZM91.53,266.27c0,2.25.98,4.15,2.81,4.15,1.73,0,2.74-1.91,2.74-4.17,0-1.86-.72-4.13-2.75-4.13s-2.81,2.21-2.81,4.16h0Z"/>
    <path class="cls-22" d="M102.81,263.75c0-1.39-.05-2.5-.1-3.56h2.7l.15,1.69h.07c.62-.94,1.76-1.94,3.68-1.94,1.6,0,2.82.8,3.34,2.09h.05c.41-.62.94-1.12,1.5-1.46.67-.42,1.42-.63,2.38-.63,2.11,0,3.99,1.41,3.99,5.04v7.37h-3.07v-6.91c0-1.86-.58-3.08-2.06-3.08-1,0-1.75.67-2.06,1.56-.09.28-.14.66-.14,1.01v7.43h-3.07v-7.25c0-1.52-.56-2.74-1.99-2.74-1.06,0-1.83.78-2.12,1.66-.1.29-.15.65-.15,1v7.34h-3.07v-8.6h0Z"/>
    <path class="cls-22" d="M123.78,263.75c0-1.39-.05-2.5-.1-3.56h2.7l.15,1.69h.07c.62-.94,1.76-1.94,3.68-1.94,1.6,0,2.82.8,3.34,2.09h.05c.41-.62.94-1.12,1.5-1.46.67-.42,1.42-.63,2.38-.63,2.11,0,3.99,1.41,3.99,5.04v7.37h-3.07v-6.91c0-1.86-.58-3.08-2.06-3.08-1,0-1.75.67-2.06,1.56-.09.28-.14.66-.14,1.01v7.43h-3.07v-7.25c0-1.52-.56-2.74-1.99-2.74-1.06,0-1.83.78-2.12,1.66-.1.29-.15.65-.15,1v7.34h-3.07v-8.6h0Z"/>
    <path class="cls-22" d="M147.03,267.08c.07,2.36,1.74,3.25,3.66,3.25,1.33,0,2.33-.21,3.19-.53l.46,2.06c-1.02.42-2.47.71-4.13.71-3.94,0-6.19-2.39-6.19-6.13s2.13-6.51,5.87-6.51,5.13,2.97,5.13,5.81c0,.61-.04,1.05-.1,1.33h-7.87,0ZM152.07,265.01c.01-1.37-.55-3.01-2.39-3.01s-2.53,1.71-2.65,3.01h5.03Z"/>
    <path class="cls-22" d="M157.46,263.96c0-1.48-.04-2.69-.1-3.76h2.73l.13,2.17h.09c.59-1.57,1.97-2.42,3.26-2.42.3,0,.48,0,.72.06v2.83c-.25-.05-.5-.07-.85-.07-1.38,0-2.44.88-2.73,2.25-.06.28-.09.63-.09,1v6.34h-3.14v-8.39h0Z"/>
    <path class="cls-22" d="M174.68,272.02c-.59.27-1.78.56-3.2.56-3.76,0-6.19-2.35-6.19-6.19,0-3.64,2.49-6.43,6.7-6.43,1.07,0,2.14.23,2.77.5l-.53,2.25c-.45-.2-1.14-.41-2.14-.41-2.3,0-3.62,1.76-3.61,3.99,0,2.49,1.54,3.94,3.62,3.94.94,0,1.64-.19,2.21-.42l.39,2.22h0Z"/>
    <path class="cls-22" d="M178.97,267.08c.07,2.36,1.74,3.25,3.66,3.25,1.33,0,2.33-.21,3.19-.53l.46,2.06c-1.02.42-2.47.71-4.13.71-3.94,0-6.19-2.39-6.19-6.13s2.13-6.51,5.87-6.51,5.13,2.97,5.13,5.81c0,.61-.04,1.05-.1,1.33h-7.87,0ZM184,265.01c.01-1.37-.55-3.01-2.39-3.01s-2.53,1.71-2.65,3.01h5.03Z"/>
    <path class="cls-22" d="M44.47,297.04c.07,2.36,1.74,3.25,3.66,3.25,1.33,0,2.33-.21,3.19-.53l.46,2.06c-1.02.42-2.47.71-4.13.71-3.94,0-6.19-2.39-6.19-6.13s2.13-6.51,5.87-6.51,5.13,2.97,5.13,5.81c0,.61-.04,1.05-.1,1.33h-7.87,0ZM49.5,294.97c.01-1.37-.55-3.01-2.39-3.01s-2.53,1.71-2.65,3.01h5.03Z"/>
    <path class="cls-22" d="M58.53,286.74v3.41h2.93v2.18h-2.93v5.64c0,1.49.48,2.13,1.57,2.13.49,0,.86-.05,1.15-.11l.06,2.26c-.47.16-1.26.28-2.22.28-1.12,0-2.06-.33-2.65-.93-.68-.67-1-1.72-1-3.37v-5.9h-1.76v-2.18h1.76v-2.7l3.09-.71h0Z"/>
    <path class="cls-22" d="M79.71,284.72v14.22c0,1.17.05,2.51.1,3.37h-2.77l-.15-1.78h-.06c-.67,1.21-2.06,2.03-3.74,2.03-2.91,0-5.04-2.5-5.04-6.22-.01-4.13,2.47-6.44,5.27-6.44,1.56,0,2.69.62,3.21,1.5h.05v-6.69h3.13ZM76.58,295.09c0-.24,0-.54-.06-.78-.24-1.12-1.15-2.06-2.43-2.06-1.9,0-2.88,1.8-2.88,4.03s1.03,3.91,2.83,3.91c1.09,0,2.1-.68,2.44-1.98.07-.25.1-.55.1-.86v-2.24h0Z"/>
    <path class="cls-22" d="M85.27,297.04c.07,2.36,1.74,3.25,3.66,3.25,1.33,0,2.33-.21,3.19-.53l.46,2.06c-1.02.42-2.47.71-4.13.71-3.94,0-6.19-2.39-6.19-6.13s2.13-6.51,5.87-6.51,5.13,2.97,5.13,5.81c0,.61-.04,1.05-.1,1.33h-7.87,0ZM90.3,294.97c.01-1.37-.55-3.01-2.39-3.01s-2.53,1.71-2.65,3.01h5.03Z"/>
    <path class="cls-22" d="M100.79,284.72h3.14v17.59h-3.14v-17.59Z"/>
    <path class="cls-22" d="M111.08,285.23c-.71,2.24-1.85,4.75-2.83,6.28l-1.87.19c.69-1.82,1.39-4.29,1.71-6.25l2.99-.22h0Z"/>
    <path class="cls-22" d="M116.5,285.48v16.83h-3.14v-16.83h3.14Z"/>
    <path class="cls-22" d="M120.06,293.71c0-1.39-.05-2.5-.1-3.56h2.74l.15,1.71h.07c.58-.95,1.89-1.96,3.8-1.96,2.22,0,4.21,1.43,4.21,4.96v7.44h-3.14v-7.11c0-1.59-.56-2.87-2.18-2.87-1.12,0-1.94.76-2.26,1.71-.09.26-.15.63-.15,1.01v7.26h-3.14v-8.6h0Z"/>
    <path class="cls-22" d="M145.06,284.72v14.22c0,1.17.05,2.51.1,3.37h-2.77l-.15-1.78h-.06c-.67,1.21-2.06,2.03-3.74,2.03-2.91,0-5.04-2.5-5.04-6.22-.01-4.13,2.47-6.44,5.27-6.44,1.56,0,2.69.62,3.21,1.5h.05v-6.69h3.13ZM141.93,295.09c0-.24,0-.54-.06-.78-.24-1.12-1.15-2.06-2.43-2.06-1.9,0-2.88,1.8-2.88,4.03s1.03,3.91,2.83,3.91c1.09,0,2.1-.68,2.44-1.98.07-.25.1-.55.1-.86v-2.24h0Z"/>
    <path class="cls-22" d="M159.03,298.7c0,1.41.05,2.61.1,3.61h-2.74l-.16-1.67h-.07c-.53.81-1.73,1.92-3.76,1.92-2.36,0-4.14-1.44-4.14-5.16v-7.24h3.14v6.79c0,1.93.57,3.2,2.14,3.2,1.18,0,1.9-.81,2.18-1.51.1-.27.17-.61.17-.98v-7.5h3.14v8.55h0Z"/>
    <path class="cls-22" d="M162.11,299.58c.65.38,1.9.81,2.98.81,1.31,0,1.95-.55,1.95-1.37s-.48-1.24-1.96-1.83c-2.35-.89-3.29-2.15-3.28-3.53,0-2.12,1.81-3.75,4.62-3.75,1.31,0,2.43.32,3.14.68l-.63,2.1c-.53-.29-1.43-.64-2.44-.64-1.11,0-1.71.56-1.71,1.28s.53,1.11,2.05,1.73c2.16.84,3.19,1.98,3.2,3.7,0,2.29-1.84,3.79-4.96,3.79-1.4,0-2.75-.33-3.58-.8l.63-2.16h0Z"/>
    <path class="cls-22" d="M176.14,286.74v3.41h2.93v2.18h-2.93v5.64c0,1.49.48,2.13,1.57,2.13.49,0,.86-.05,1.15-.11l.06,2.26c-.47.16-1.26.28-2.22.28-1.12,0-2.06-.33-2.65-.93-.68-.67-1-1.72-1-3.37v-5.9h-1.76v-2.18h1.76v-2.7l3.09-.71h0Z"/>
    <path class="cls-22" d="M181.29,293.92c0-1.48-.04-2.69-.1-3.76h2.73l.13,2.17h.09c.59-1.57,1.97-2.42,3.26-2.42.3,0,.48,0,.72.06v2.83c-.25-.05-.5-.07-.85-.07-1.38,0-2.44.88-2.73,2.25-.06.28-.09.63-.09,1v6.34h-3.14v-8.39h0Z"/>
    <path class="cls-22" d="M193.38,286.82c0,.92-.68,1.62-1.77,1.62-1.01,0-1.7-.7-1.7-1.62,0-.94.71-1.63,1.73-1.63s1.73.68,1.73,1.63h0ZM190.08,302.31v-12.16h3.14v12.16h-3.14Z"/>
    <path class="cls-22" d="M198.76,297.04c.07,2.36,1.74,3.25,3.66,3.25,1.33,0,2.33-.21,3.19-.53l.46,2.06c-1.02.42-2.47.71-4.13.71-3.94,0-6.19-2.39-6.19-6.13s2.13-6.51,5.87-6.51,5.13,2.97,5.13,5.81c0,.61-.04,1.05-.1,1.33h-7.87,0ZM203.8,294.97c.01-1.37-.55-3.01-2.39-3.01s-2.53,1.71-2.65,3.01h5.03Z"/>
  </g>
</svg>